<svg width="260" height="179" viewBox="0 0 260 179" fill="none" xmlns="http://www.w3.org/2000/svg">
<path d="M44.7867 137.724H30.1531L31.6935 133.512C32.4165 131.547 32.6837 130.29 32.4951 129.755C32.3065 129.221 31.7878 128.954 30.9233 128.954C29.9802 128.954 29.1314 129.315 28.3769 130.038C27.6225 130.761 26.978 131.862 26.4436 133.339C25.752 135.241 25.5005 136.671 25.7049 137.63C25.8778 138.589 26.9309 139.752 28.8956 141.104C34.4913 145.018 37.7292 148.224 38.6409 150.723C39.5525 153.238 38.9867 157.278 36.9591 162.858C35.4815 166.913 33.894 169.899 32.1807 171.817C30.4675 173.735 27.9368 175.354 24.5731 176.658C21.2095 177.963 17.5943 178.607 13.7591 178.607C9.54659 178.607 6.21434 177.853 3.77803 176.36C1.34171 174.866 0.0842584 172.949 0.0056676 170.623C-0.0729232 168.296 0.66583 165.011 2.22193 160.752L3.57369 157.026H18.2073L15.6924 163.958C14.9222 166.096 14.6236 167.463 14.8122 168.076C15.0008 168.689 15.6138 168.988 16.6669 168.988C17.72 168.988 18.6317 168.595 19.4333 167.825C20.2192 167.054 20.8951 165.907 21.4609 164.382C22.687 161.034 22.9856 158.834 22.3883 157.812C21.7596 156.775 19.9363 155.062 16.9027 152.641C13.8691 150.205 11.92 148.428 11.0555 147.328C10.191 146.228 9.68805 144.703 9.56231 142.754C9.43656 140.805 9.92382 138.322 11.0241 135.304C12.6116 130.95 14.3563 127.759 16.274 125.747C18.1916 123.735 20.675 122.148 23.7401 121.016C26.8051 119.884 30.2002 119.303 33.9412 119.303C38.0279 119.303 41.2973 119.931 43.7179 121.173C46.1385 122.415 47.4902 123.987 47.726 125.873C47.9775 127.759 47.2702 130.966 45.6355 135.492L44.8181 137.74L44.7867 137.724Z" fill="black"/>
<path d="M108.446 120.496L81.4105 177.412H63.7118C65.2679 168.672 67.4685 158.723 70.282 147.563C67.9715 152.341 63.036 162.291 55.4598 177.412H37.8555L52.2219 120.496H65.991L60.2538 140.348L54.7053 159.556C58.8392 149.622 64.8907 136.607 72.8441 120.496H87.5563C87.1476 122.162 85.3872 128.418 82.275 139.264L75.9563 160.923C81.772 147.138 87.9964 133.668 94.6294 120.496H108.399H108.446Z" fill="black"/>
<path d="M109.828 120.496H136.093L131.943 131.892H121.428L117.499 142.69H127.338L123.393 153.52H113.553L108.995 166.032H120.548L116.398 177.427H89.0801L109.797 120.512L109.828 120.496Z" fill="black"/>
<path d="M168.897 120.496L157.187 177.412H141.092L143.968 167.179H138.341L133.673 177.412H117.389L146.137 120.496H168.897ZM147.63 155.941C148.731 151.445 150.067 146.274 151.654 140.458C151.921 139.484 150.538 138.949 150.082 139.861C146.672 146.635 144.062 152.011 142.255 155.972C141.925 156.679 142.459 157.481 143.229 157.481H145.666C146.593 157.481 147.41 156.852 147.63 155.941Z" fill="black"/>
<path d="M173.659 120.496L169.51 131.876H178.831L162.248 177.412H177.998L194.58 131.876H207.516L190.949 177.412H206.699L227.416 120.496H173.659Z" fill="black"/>
<path d="M233.734 120.496H259.999L255.85 131.892H245.334L241.405 142.69H251.244L247.299 153.52H237.46L232.901 166.032H244.454L240.304 177.427H212.986L233.703 120.512L233.734 120.496Z" fill="black"/>
<path d="M170.751 0.394531H101.434C94.4634 0.394531 88.8125 6.04545 88.8125 13.0162V82.3333C88.8125 89.304 94.4634 94.955 101.434 94.955H170.751C177.722 94.955 183.373 89.304 183.373 82.3333V13.0162C183.373 6.04545 177.722 0.394531 170.751 0.394531Z" fill="black"/>
<path d="M155.111 56.727C154.906 56.6169 154.671 56.5698 154.451 56.5698C147.566 56.6169 144.438 57.7958 137.774 50.8169C133.294 46.1329 131.816 44.6554 128.736 41.2917C128.201 40.7102 127.447 40.3644 126.677 40.5844L120.672 42.2191L114.432 43.8852C113.238 44.1996 112.2 44.9855 111.556 46.0386L100.962 63.5329C100.27 64.6961 101.103 66.1579 102.439 66.1579L149.075 66.205C150.38 66.205 151.59 65.5134 152.25 64.3817L154.01 61.3481L155.614 58.676C156.007 58.0001 155.802 57.1356 155.126 56.7427L155.111 56.727Z" fill="white"/>
<path d="M169.649 29.1897L141.671 36.6401C140.602 36.9545 140.696 38.4949 141.796 38.6678H142.174C142.174 38.6678 150.771 39.5323 154.057 42.1101C156.823 44.3106 158.19 47.6428 158.19 50.0163C158.19 51.0694 159.589 51.4466 160.108 50.535L171.268 31.3117C171.912 30.1957 170.891 28.8596 169.649 29.1897Z" fill="white"/>
</svg>
