<?xml version="1.0" encoding="utf-8"?>
<!-- Generator: Adobe Illustrator 26.5.0, SVG Export Plug-In . SVG Version: 6.00 Build 0)  -->
<svg version="1.1" id="vertical_logo" xmlns="http://www.w3.org/2000/svg" xmlns:xlink="http://www.w3.org/1999/xlink" x="0px"
	 y="0px" viewBox="0 0 600 382" style="enable-background:new 0 0 600 382;" xml:space="preserve">
<style type="text/css">
	.st0{clip-path:url(#SVGID_00000152982101255659929970000002474586680019226013_);}
	.st1{fill:none;stroke:#000;stroke-linecap:round;stroke-miterlimit:10;}
	.st2{enable-background:new    ;}
	.st3{fill:#000000;}
	.st4{fill:#000000;}
	.st5{fill:#000000;}
</style>
<g>
	<defs>
		<rect id="SVGID_1_" y="0" width="600" height="382"/>
	</defs>
	<clipPath id="SVGID_00000130636918844765743740000003983172262199657900_">
		<use xlink:href="#SVGID_1_"  style="overflow:visible;"/>
	</clipPath>
	<g id="lines" style="clip-path:url(#SVGID_00000130636918844765743740000003983172262199657900_);">
<path class="st1" d="M497 -54.5 C447.23 32.53 397.46 119.56 347.7 206.6 "></path>
<path class="st1" d="M334 -38.2 C284.3 43.43 234.6 125.06 184.9 206.7 "></path>
<path class="st1" d="M-145.4 186 C147.66 186 440.73 186 733.8 186 "></path>
<path class="st1" d="M515.5 206.6 C486.63 290.13 457.76 373.66 428.9 457.2 "></path>
<path class="st1" d="M103.9 206.6 C75 290.16 46.1 373.73 17.2 457.3 "></path>
<path class="st1" d="M-156.1 327.8 C152.63 327.8 461.36 327.8 770.1 327.8 "></path>
<path class="st1" d="M-153.5 227.8 C122.56 227.8 398.63 227.8 674.7 227.8 "></path>
<path class="st1" d="M125.3 148.1 C273.89 108.6 422.5 69.09 571.1 29.6 "></path>
	</g>
	<g style="clip-path:url(#SVGID_00000130636918844765743740000003983172262199657900_);">
		<g class="st2">
			<path class="st3" d="M486.9,322c-0.6,0-1.1-0.1-1.6-0.4c-0.5-0.3-0.9-0.6-1.2-1.1c-0.3-0.5-0.4-1-0.4-1.5c0-0.4,0.1-0.9,0.3-1.3
				c0.2-0.4,0.5-0.7,0.8-1c-0.3-0.2-0.5-0.5-0.7-0.9c-0.2-0.3-0.3-0.7-0.3-1.1c0-0.5,0.1-1,0.4-1.4c0.3-0.4,0.6-0.8,1.1-1
				c0.5-0.3,1-0.4,1.5-0.4c0.6,0,1.1,0.1,1.5,0.4c0.5,0.3,0.8,0.6,1.1,1c0.3,0.4,0.4,0.9,0.4,1.4c0,0.4-0.1,0.8-0.2,1.1
				c-0.2,0.3-0.4,0.6-0.7,0.9c0.4,0.3,0.6,0.6,0.8,1s0.3,0.8,0.3,1.3c0,0.6-0.1,1.1-0.4,1.5c-0.3,0.5-0.7,0.8-1.2,1.1
				C488.1,321.9,487.5,322,486.9,322z M486.9,320.3c0.3,0,0.5-0.1,0.7-0.2c0.2-0.1,0.4-0.3,0.5-0.5s0.2-0.4,0.2-0.7
				s-0.1-0.5-0.2-0.7s-0.3-0.4-0.5-0.5c-0.2-0.1-0.5-0.2-0.7-0.2c-0.3,0-0.5,0.1-0.7,0.2c-0.2,0.1-0.4,0.3-0.5,0.5s-0.2,0.4-0.2,0.7
				s0.1,0.5,0.2,0.7s0.3,0.4,0.5,0.5C486.4,320.2,486.6,320.3,486.9,320.3z M486.9,315.9c0.2,0,0.4-0.1,0.6-0.2
				c0.2-0.1,0.3-0.2,0.4-0.4c0.1-0.2,0.2-0.4,0.2-0.6s-0.1-0.4-0.2-0.6c-0.1-0.2-0.3-0.3-0.4-0.4c-0.2-0.1-0.4-0.2-0.6-0.2
				c-0.2,0-0.4,0.1-0.6,0.2c-0.2,0.1-0.3,0.2-0.4,0.4s-0.2,0.4-0.2,0.6s0.1,0.4,0.2,0.6s0.3,0.3,0.4,0.4
				C486.5,315.8,486.7,315.9,486.9,315.9z"/>
			<path class="st3" d="M491.3,321.8v-1.5c0.3-0.2,0.7-0.5,1.1-0.9c0.4-0.3,0.8-0.7,1.3-1.1s0.8-0.8,1.2-1.2
				c0.4-0.4,0.7-0.8,0.9-1.1s0.4-0.7,0.4-0.9c0-0.3-0.1-0.5-0.2-0.8c-0.1-0.2-0.3-0.4-0.6-0.6c-0.2-0.1-0.5-0.2-0.8-0.2
				c-0.3,0-0.5,0.1-0.8,0.2c-0.2,0.1-0.4,0.3-0.6,0.6c-0.1,0.2-0.2,0.5-0.2,0.8h-1.7c0-0.6,0.1-1.2,0.4-1.7c0.3-0.5,0.7-0.9,1.2-1.2
				c0.5-0.3,1-0.4,1.6-0.4c0.6,0,1.1,0.1,1.6,0.4c0.5,0.3,0.9,0.7,1.2,1.2c0.3,0.5,0.4,1,0.4,1.6c0,0.3-0.1,0.6-0.2,1
				c-0.1,0.3-0.3,0.6-0.5,1c-0.2,0.3-0.5,0.7-0.7,1c-0.3,0.3-0.6,0.7-0.9,1s-0.7,0.7-1.1,1.1h3.5v1.7H491.3z"/>
			<path class="st3" d="M500.2,322c-0.2,0-0.4-0.1-0.6-0.3c-0.2-0.2-0.3-0.4-0.3-0.6c0-0.2,0.1-0.4,0.3-0.6c0.2-0.2,0.4-0.3,0.6-0.3
				c0.2,0,0.5,0.1,0.6,0.3c0.2,0.2,0.3,0.4,0.3,0.6c0,0.2-0.1,0.5-0.3,0.6C500.6,321.9,500.4,322,500.2,322z"/>
		</g>
		<g class="st2">
			<path class="st3" d="M505.7,322c-0.6,0-1.2-0.2-1.7-0.5c-0.5-0.3-0.9-0.7-1.2-1.2c-0.3-0.5-0.4-1.1-0.4-1.7h1.7
				c0,0.3,0.1,0.6,0.2,0.8c0.1,0.2,0.3,0.4,0.6,0.6c0.2,0.1,0.5,0.2,0.8,0.2c0.3,0,0.6-0.1,0.8-0.2c0.2-0.1,0.4-0.3,0.6-0.6
				c0.1-0.2,0.2-0.5,0.2-0.8s-0.1-0.6-0.2-0.8c-0.1-0.3-0.3-0.5-0.6-0.6c-0.3-0.2-0.7-0.2-1.1-0.2h-2.5l1-5h4.8v1.7h-3.4l-0.3,1.5
				l0.7,0c0.7,0,1.2,0.2,1.8,0.5c0.5,0.3,0.9,0.7,1.2,1.2s0.4,1.1,0.4,1.7c0,0.5-0.1,0.9-0.3,1.3s-0.4,0.8-0.7,1.1
				c-0.3,0.3-0.7,0.5-1.1,0.7C506.6,321.9,506.2,322,505.7,322z"/>
		</g>
		<g class="st2">
			<path class="st3" d="M513.4,316.9c-0.5,0-0.9-0.1-1.3-0.4c-0.4-0.2-0.7-0.6-0.9-1c-0.2-0.4-0.3-0.8-0.3-1.3
				c0-0.5,0.1-0.9,0.4-1.3c0.2-0.4,0.6-0.7,1-1c0.4-0.2,0.8-0.4,1.3-0.4c0.5,0,0.9,0.1,1.3,0.4c0.4,0.2,0.7,0.6,0.9,1
				c0.2,0.4,0.3,0.8,0.3,1.3c0,0.5-0.1,0.9-0.4,1.3c-0.2,0.4-0.6,0.7-1,0.9C514.3,316.8,513.9,316.9,513.4,316.9z M513.4,315.2
				c0.3,0,0.5-0.1,0.7-0.3c0.2-0.2,0.3-0.4,0.3-0.7c0-0.3-0.1-0.5-0.3-0.7c-0.2-0.2-0.4-0.3-0.7-0.3c-0.3,0-0.5,0.1-0.7,0.3
				c-0.2,0.2-0.3,0.4-0.3,0.7c0,0.3,0.1,0.5,0.3,0.7S513.2,315.2,513.4,315.2z"/>
		</g>
		<g>
			<path class="st4" d="M482.6,328c-0.2,0-0.4-0.2-0.5-0.4c-0.6-2.9-2.6-5.5-5.4-6.7c-0.3-0.1-0.4-0.4-0.3-0.7s0.4-0.4,0.7-0.3
				c3.1,1.4,5.4,4.2,6,7.5C483.1,327.7,483,327.9,482.6,328C482.7,328,482.6,328,482.6,328z"/>
		</g>
	</g>
	<g style="clip-path:url(#SVGID_00000130636918844765743740000003983172262199657900_);">
		<g class="st2">
			<path class="st3" d="M374.1,181.6c-0.6,0-1.2-0.2-1.7-0.5s-0.9-0.7-1.3-1.3s-0.5-1.1-0.5-1.7c0-0.3,0-0.6,0.1-0.9
				c0.1-0.3,0.2-0.6,0.4-0.8l2.7-4.8h2l-1.8,3.2c0.4,0,0.7,0,1.1,0.1c0.4,0.1,0.7,0.2,1,0.4c0.3,0.2,0.6,0.4,0.8,0.7
				c0.2,0.3,0.4,0.6,0.5,1c0.1,0.4,0.2,0.7,0.2,1.1c0,0.5-0.1,0.9-0.3,1.3c-0.2,0.4-0.4,0.8-0.7,1.1c-0.3,0.3-0.7,0.6-1.1,0.7
				S374.5,181.6,374.1,181.6z M374.1,179.9c0.3,0,0.6-0.1,0.9-0.2c0.3-0.2,0.5-0.4,0.6-0.6c0.2-0.3,0.2-0.5,0.2-0.8
				c0-0.3-0.1-0.6-0.2-0.9c-0.2-0.3-0.4-0.5-0.6-0.6c-0.3-0.2-0.6-0.2-0.9-0.2c-0.3,0-0.6,0.1-0.9,0.2s-0.5,0.4-0.6,0.6
				c-0.1,0.3-0.2,0.6-0.2,0.9c0,0.3,0.1,0.6,0.2,0.9c0.2,0.3,0.4,0.5,0.6,0.6S373.8,179.9,374.1,179.9z"/>
		</g>
		<g class="st2">
			<path class="st3" d="M382.2,181.6c-0.6,0-1.1-0.1-1.6-0.4c-0.5-0.3-0.9-0.6-1.2-1.1c-0.3-0.5-0.6-1-0.8-1.6
				c-0.2-0.6-0.3-1.3-0.3-2c0-0.7,0.1-1.4,0.3-2c0.2-0.6,0.4-1.2,0.8-1.6c0.3-0.5,0.7-0.8,1.2-1.1c0.5-0.3,1-0.4,1.6-0.4
				s1.1,0.1,1.6,0.4c0.5,0.3,0.9,0.6,1.2,1.1c0.3,0.5,0.6,1,0.8,1.6c0.2,0.6,0.3,1.3,0.3,2c0,0.7-0.1,1.4-0.3,2
				c-0.2,0.6-0.4,1.2-0.8,1.6c-0.3,0.5-0.7,0.8-1.2,1.1S382.8,181.6,382.2,181.6z M382.2,179.9c0.5,0,0.9-0.2,1.2-0.5
				c0.3-0.3,0.6-0.7,0.7-1.2s0.2-1.1,0.2-1.7c0-0.6-0.1-1.2-0.3-1.7s-0.4-0.9-0.7-1.2c-0.3-0.3-0.7-0.5-1.2-0.5
				c-0.4,0-0.7,0.1-1,0.3c-0.3,0.2-0.5,0.4-0.7,0.8c-0.2,0.3-0.3,0.7-0.4,1.1c-0.1,0.4-0.1,0.8-0.1,1.3c0,0.6,0.1,1.1,0.2,1.6
				c0.2,0.5,0.4,0.9,0.7,1.2S381.7,179.9,382.2,179.9z"/>
		</g>
		<g class="st2">
			<path class="st3" d="M389.9,176.5c-0.5,0-0.9-0.1-1.3-0.4c-0.4-0.2-0.7-0.6-0.9-1c-0.2-0.4-0.4-0.8-0.4-1.3
				c0-0.5,0.1-0.9,0.4-1.3c0.2-0.4,0.6-0.7,1-1c0.4-0.2,0.8-0.4,1.3-0.4c0.5,0,0.9,0.1,1.3,0.4s0.7,0.6,0.9,1
				c0.2,0.4,0.3,0.8,0.3,1.3c0,0.5-0.1,0.9-0.4,1.3c-0.2,0.4-0.6,0.7-1,0.9C390.8,176.4,390.4,176.5,389.9,176.5z M389.9,174.8
				c0.3,0,0.5-0.1,0.7-0.3c0.2-0.2,0.3-0.4,0.3-0.7c0-0.3-0.1-0.5-0.3-0.7c-0.2-0.2-0.4-0.3-0.7-0.3c-0.3,0-0.5,0.1-0.7,0.3
				c-0.2,0.2-0.3,0.4-0.3,0.7c0,0.3,0.1,0.5,0.3,0.7S389.6,174.8,389.9,174.8z"/>
		</g>
		<g>
			<path class="st4" d="M369.7,186.5c-0.2,0-0.4-0.2-0.5-0.4c-0.6-2.9-2.6-5.5-5.4-6.7c-0.3-0.1-0.4-0.4-0.3-0.7
				c0.1-0.3,0.4-0.4,0.7-0.3c3.1,1.4,5.4,4.2,6,7.5C370.2,186.2,370.1,186.4,369.7,186.5C369.8,186.5,369.7,186.5,369.7,186.5z"/>
		</g>
	</g>
	<g style="clip-path:url(#SVGID_00000130636918844765743740000003983172262199657900_);">
		<g class="st2">
			<path class="st3" d="M258.4,106.6v-2.4h-4.2v-1.7l3.8-5.7h2.1v5.7h0.8v1.7h-0.8v2.4H258.4z M256.3,102.5l2.2,0l0-3.4L256.3,102.5
				z"/>
		</g>
		<g class="st2">
			<path class="st3" d="M265.7,106.7c-0.6,0-1.2-0.2-1.7-0.5c-0.5-0.3-0.9-0.7-1.2-1.2s-0.4-1.1-0.4-1.7h1.7c0,0.3,0.1,0.6,0.2,0.8
				c0.1,0.2,0.3,0.4,0.6,0.6c0.2,0.1,0.5,0.2,0.8,0.2c0.3,0,0.6-0.1,0.8-0.2c0.2-0.1,0.4-0.3,0.6-0.6c0.1-0.2,0.2-0.5,0.2-0.8
				s-0.1-0.6-0.2-0.8c-0.1-0.3-0.3-0.5-0.6-0.6c-0.3-0.2-0.7-0.2-1.1-0.2h-2.5l1-5h4.8v1.7h-3.4l-0.3,1.5l0.7,0
				c0.7,0,1.2,0.2,1.8,0.5c0.5,0.3,0.9,0.7,1.2,1.2s0.4,1.1,0.4,1.7c0,0.5-0.1,0.9-0.3,1.3c-0.2,0.4-0.4,0.8-0.7,1.1
				c-0.3,0.3-0.7,0.5-1.1,0.7C266.6,106.6,266.1,106.7,265.7,106.7z"/>
		</g>
		<g class="st2">
			<path class="st3" d="M273.3,101.6c-0.5,0-0.9-0.1-1.3-0.4c-0.4-0.2-0.7-0.6-0.9-1c-0.2-0.4-0.4-0.8-0.4-1.3
				c0-0.5,0.1-0.9,0.4-1.3c0.2-0.4,0.6-0.7,1-1c0.4-0.2,0.8-0.4,1.3-0.4c0.5,0,0.9,0.1,1.3,0.4c0.4,0.2,0.7,0.6,0.9,1
				c0.2,0.4,0.3,0.8,0.3,1.3c0,0.5-0.1,0.9-0.4,1.3s-0.6,0.7-1,0.9C274.3,101.5,273.8,101.6,273.3,101.6z M273.3,99.9
				c0.3,0,0.5-0.1,0.7-0.3s0.3-0.4,0.3-0.7c0-0.3-0.1-0.5-0.3-0.7c-0.2-0.2-0.4-0.3-0.7-0.3c-0.3,0-0.5,0.1-0.7,0.3
				c-0.2,0.2-0.3,0.4-0.3,0.7c0,0.3,0.1,0.5,0.3,0.7S273.1,99.9,273.3,99.9z"/>
		</g>
		<g>
			<path class="st4" d="M252.4,114.7c-0.2,0-0.4-0.2-0.5-0.4c-0.6-2.9-2.6-5.5-5.4-6.7c-0.3-0.1-0.4-0.4-0.3-0.7
				c0.1-0.3,0.4-0.4,0.7-0.3c3.1,1.4,5.4,4.2,6,7.5C252.9,114.4,252.8,114.6,252.4,114.7C252.5,114.7,252.4,114.7,252.4,114.7z"/>
		</g>
	</g>
	<g style="clip-path:url(#SVGID_00000130636918844765743740000003983172262199657900_);">
		<g>
			<path class="st5" d="M144.1,258.9h-24.7l2.6-7.1c1.2-3.3,1.7-5.4,1.4-6.3s-1.2-1.4-2.7-1.4c-1.6,0-3,0.6-4.3,1.8
				s-2.3,3.1-3.3,5.6c-1.2,3.2-1.6,5.6-1.2,7.2c0.3,1.6,2.1,3.6,5.4,5.9c9.4,6.6,14.9,12,16.4,16.2s0.6,11-2.8,20.5
				c-2.5,6.8-5.2,11.9-8.1,15.1s-7.2,6-12.8,8.1c-5.7,2.2-11.8,3.3-18.2,3.3c-7.1,0-12.7-1.3-16.8-3.8c-4.1-2.5-6.2-5.8-6.3-9.7
				c-0.1-3.9,1.1-9.5,3.7-16.6l2.3-6.3h24.7L95,303.1c-1.3,3.6-1.8,5.9-1.5,6.9s1.4,1.5,3.1,1.5s3.3-0.6,4.7-2
				c1.3-1.3,2.5-3.2,3.4-5.8c2.1-5.6,2.6-9.4,1.6-11.1c-1.1-1.7-4.1-4.6-9.3-8.7c-5.1-4.1-8.4-7.1-9.9-9s-2.3-4.4-2.5-7.7
				c-0.2-3.3,0.6-7.5,2.5-12.6c2.7-7.4,5.6-12.7,8.9-16.1s7.4-6.1,12.6-8s10.9-2.9,17.2-2.9c6.9,0,12.4,1.1,16.5,3.1
				c4.1,2.1,6.4,4.7,6.8,7.9c0.4,3.2-0.8,8.6-3.5,16.2L144.1,258.9L144.1,258.9z"/>
			<path class="st5" d="M251.4,229.8l-45.6,96H176c2.6-14.7,6.3-31.5,11.1-50.3c-3.9,8.1-12.2,24.8-25,50.3h-29.7l24.2-96h23.2
				l-9.7,33.5l-9.3,32.4c7-16.8,17.2-38.7,30.6-65.9h24.8c-0.7,2.8-3.7,13.4-8.9,31.7L196.8,298c9.8-23.2,20.3-46,31.5-68.2H251.4
				L251.4,229.8z"/>
			<path class="st5" d="M253.8,229.8h44.3l-7,19.2h-17.7l-6.6,18.2h16.6l-6.6,18.3h-16.6l-7.7,21.1H272l-7,19.2h-46.1L253.8,229.8
				L253.8,229.8z"/>
			<path class="st5" d="M353.4,229.8l-19.7,96h-27.1l4.9-17.2H302l-7.9,17.2h-27.5l48.5-96L353.4,229.8L353.4,229.8z M317.5,289.6
				c1.9-7.6,4.1-16.3,6.8-26.1c0.5-1.7-1.9-2.5-2.6-1c-5.8,11.4-10.2,20.5-13.2,27.2c-0.5,1.2,0.3,2.5,1.6,2.5h4.1
				C315.8,292.2,317.1,291.1,317.5,289.6L317.5,289.6z"/>
			<polygon class="st5" points="361.4,229.8 354.4,249 370.1,249 342.2,325.8 368.7,325.8 396.7,249 418.5,249 390.5,325.8 
				417.1,325.8 452,229.8 			"/>
			<path class="st5" d="M462.7,229.8H507l-7,19.2h-17.7l-6.6,18.2h16.6l-6.6,18.3H469l-7.7,21.1h19.5l-7,19.2h-46L462.7,229.8
				L462.7,229.8z"/>
		</g>
		<g>
			<path class="st5" d="M370.9,156.6c-0.6-0.4-1.4-0.5-2.1-0.5c-21.3,0.1-31,3.8-51.7-17.8c-13.9-14.5-18.5-19.1-28-29.5
				c-1.7-1.8-4-2.9-6.4-2.2l-18.6,5.1l0,0l-19.3,5.2c-3.7,1-6.9,3.4-8.9,6.7l-32.8,54.2c-2.2,3.6,0.4,8.1,4.6,8.1l144.5,0.1
				c4,0,7.8-2.1,9.8-5.7l5.5-9.4l5-8.3C373.6,160.5,373,157.9,370.9,156.6L370.9,156.6z"/>
			<path class="st5" d="M415.9,71.3l-86.6,23.1l0,0c-3.3,0.9-3,5.8,0.4,6.3h1.2c0,0,26.6,2.7,36.8,10.7l0,0
				c8.6,6.8,12.8,17.2,12.8,24.5c0,3.3,4.3,4.4,6,1.6l34.6-59.6C422.9,74.4,419.7,70.3,415.9,71.3L415.9,71.3z"/>
		</g>
	</g>
</g>
</svg>
