<svg width="154" height="153" viewBox="0 0 154 153" fill="none" xmlns="http://www.w3.org/2000/svg">
<path d="M132.987 0.125H21.0138C9.75339 0.125 0.625 9.25338 0.625 20.5138V132.487C0.625 143.748 9.75339 152.876 21.0138 152.876H132.987C144.248 152.876 153.376 143.748 153.376 132.487V20.5138C153.376 9.25338 144.248 0.125 132.987 0.125Z" fill="black"/>
<path d="M107.723 91.1257C107.393 90.948 107.012 90.8718 106.657 90.8718C95.5353 90.948 90.4825 92.8523 79.7168 81.5787C72.4804 74.0123 70.0937 71.6256 65.1171 66.1919C64.2538 65.2525 63.035 64.6939 61.7909 65.0494L52.0916 67.69L42.0115 70.3815C40.0818 70.8893 38.406 72.1588 37.3649 73.86L20.2515 102.12C19.1343 103.999 20.4801 106.36 22.6383 106.36L97.9728 106.436C100.08 106.436 102.035 105.319 103.102 103.491L105.946 98.5906L108.535 94.2741C109.17 93.1823 108.84 91.7859 107.748 91.1511L107.723 91.1257Z" fill="white"/>
<path d="M131.208 46.6411L86.0127 58.6763C84.2861 59.1841 84.4384 61.6724 86.2158 61.9517H86.8252C86.8252 61.9517 100.714 63.3482 106.021 67.5123C110.489 71.067 112.698 76.4499 112.698 80.2839C112.698 81.9851 114.958 82.5944 115.796 81.1217L133.824 50.0688C134.865 48.2661 133.214 46.1079 131.208 46.6411Z" fill="white"/>
</svg>
