<?xml version="1.0" encoding="utf-8"?>
<!-- Generator: Adobe Illustrator 26.5.0, SVG Export Plug-In . SVG Version: 6.00 Build 0)  -->
<svg version="1.1" id="horizontal_logo" xmlns="http://www.w3.org/2000/svg" xmlns:xlink="http://www.w3.org/1999/xlink" x="0px"
	 y="0px" viewBox="0 0 817 264.7" style="enable-background:new 0 0 817 264.7;" xml:space="preserve">
<style type="text/css">
	.st0{clip-path:url(#SVGID_00000128474458227812408960000015076984062995758783_);}
	.st1{fill:#FFFFFF;}
	.st2{fill:none;stroke:#FFFFFF;stroke-miterlimit:10;}
	.st3{fill:#FFFFFF;}
	.st4{fill:none;stroke:#FFFFFF;stroke-linecap:round;stroke-miterlimit:10;}
</style>
<g id="Layer_1">
	<g>
		<defs>
			<rect id="SVGID_1_" x="17" y="28.8" width="800" height="200"/>
		</defs>
		<clipPath id="SVGID_00000145038276195616672890000015820891487605746607_">
			<use xlink:href="#SVGID_1_"  style="overflow:visible;"/>
		</clipPath>
		<g style="clip-path:url(#SVGID_00000145038276195616672890000015820891487605746607_);">
			<g>
				<path class="st1" d="M395.5,107.8h-24l2.5-6.9c1.2-3.2,1.6-5.3,1.3-6.2s-1.1-1.3-2.6-1.3c-1.5,0-3,0.6-4.2,1.8
					c-1.2,1.2-2.3,3-3.2,5.4c-1.1,3.1-1.5,5.5-1.2,7c0.3,1.6,2,3.5,5.2,5.7c9.2,6.4,14.5,11.7,16,15.8c1.5,4.1,0.6,10.7-2.8,19.9
					c-2.4,6.6-5,11.6-7.8,14.7c-2.8,3.1-7,5.8-12.5,7.9c-5.5,2.1-11.4,3.2-17.7,3.2c-6.9,0-12.4-1.2-16.4-3.7c-4-2.5-6-5.6-6.2-9.4
					c-0.1-3.8,1.1-9.2,3.6-16.2l2.2-6.1h24l-4.1,11.4c-1.3,3.5-1.8,5.8-1.4,6.8c0.3,1,1.3,1.5,3,1.5s3.2-0.6,4.5-1.9
					c1.3-1.3,2.4-3.1,3.3-5.6c2-5.5,2.5-9.1,1.5-10.8c-1-1.7-4-4.5-9-8.5c-5-4-8.2-6.9-9.6-8.7s-2.2-4.3-2.5-7.5s0.6-7.3,2.4-12.2
					c2.6-7.2,5.5-12.4,8.6-15.7c3.1-3.3,7.2-5.9,12.2-7.8s10.6-2.8,16.7-2.8c6.7,0,12,1,16,3.1c4,2,6.2,4.6,6.6,7.7
					s-0.7,8.3-3.4,15.8L395.5,107.8L395.5,107.8z"/>
				<path class="st1" d="M499.9,79.6l-44.3,93.4h-29c2.6-14.3,6.2-30.7,10.8-49c-3.8,7.8-11.9,24.2-24.3,49h-28.9l23.6-93.4h22.6
					l-9.4,32.6l-9.1,31.5c6.8-16.3,16.7-37.7,29.8-64.1h24.1c-0.7,2.7-3.6,13-8.7,30.8l-10.4,35.5c9.5-22.6,19.8-44.7,30.6-66.3
					L499.9,79.6L499.9,79.6z"/>
				<path class="st1" d="M502.2,79.6h43.1l-6.8,18.7h-17.2l-6.5,17.7h16.1l-6.5,17.8h-16.1l-7.5,20.5h19l-6.8,18.7h-44.8L502.2,79.6
					L502.2,79.6z"/>
				<path class="st1" d="M599.1,79.6l-19.2,93.4h-26.4l4.7-16.8h-9.2l-7.7,16.8h-26.7l47.2-93.4L599.1,79.6L599.1,79.6z
					 M564.2,137.7c1.8-7.4,4-15.8,6.6-25.4c0.4-1.6-1.8-2.5-2.6-1c-5.6,11.1-9.9,19.9-12.8,26.4c-0.5,1.2,0.3,2.5,1.6,2.5h4
					C562.5,140.2,563.8,139.2,564.2,137.7L564.2,137.7z"/>
				<polygon class="st1" points="606.9,79.6 600.1,98.3 615.4,98.3 588.2,172.9 614,172.9 641.2,98.3 662.4,98.3 635.2,172.9 
					661.1,172.9 695.1,79.6 				"/>
				<path class="st1" d="M705.4,79.6h43.1l-6.8,18.7h-17.2l-6.5,17.7h16.1l-6.5,17.8h-16.1l-7.5,20.5h19l-6.8,18.7h-44.8L705.4,79.6
					L705.4,79.6z"/>
			</g>
			<g>
				<path class="st1" d="M251.1,154.8c-0.6-0.4-1.4-0.5-2.1-0.5c-21.7,0.1-31.5,3.9-52.5-18.1c-14.1-14.8-18.8-19.4-28.5-30
					c-1.7-1.9-4.1-2.9-6.5-2.2l-18.9,5.2l0,0l-19.6,5.2c-3.8,1-7,3.4-9.1,6.8l-33.4,55.1c-2.2,3.6,0.4,8.3,4.6,8.3l146.9,0.1
					c4.1,0,7.9-2.2,10-5.8l5.6-9.6l5-8.4C253.9,158.8,253.2,156,251.1,154.8L251.1,154.8z"/>
				<path class="st1" d="M296.9,68l-88.1,23.5l0,0c-3.4,1-3.1,5.8,0.4,6.4l1.2,0c0,0,27.1,2.7,37.4,10.9h-0.1
					c8.7,6.9,13,17.4,13,24.9c0,3.3,4.4,4.5,6,1.6L302,74.7C304,71.2,300.8,67,296.9,68L296.9,68z"/>
			</g>
			<g id="line">
				<line class="st2" x1="344.4" y1="0.2" x2="196.8" y2="258.7"/>
				<line class="st2" x1="184.8" y1="4.5" x2="37.2" y2="248"/>
				<line class="st2" x1="0" y1="184.6" x2="817" y2="184.6"/>
				<line class="st2" x1="374" y1="5.3" x2="284.2" y2="264.6"/>
				<line class="st2" x1="770.6" y1="14.1" x2="687.2" y2="259.7"/>
				<line class="st2" x1="315.2" y1="174.9" x2="815.7" y2="174.9"/>
				<line class="st2" x1="349.2" y1="77.8" x2="817" y2="77.8"/>
				<line class="st2" x1="0.6" y1="147" x2="470.9" y2="21.7"/>
			</g>
			<g>
				<path class="st3" d="M134.6,105.8v-2.4h-4.2v-1.7l3.8-5.7h2.1v5.7h0.8v1.7h-0.8v2.4L134.6,105.8L134.6,105.8z M132.4,101.7h2.2
					v-3.4L132.4,101.7L132.4,101.7z"/>
				<path class="st3" d="M141.8,106c-0.6,0-1.2-0.2-1.7-0.5s-0.9-0.7-1.2-1.2s-0.4-1.1-0.4-1.7h1.7c0,0.3,0.1,0.6,0.2,0.8
					s0.4,0.4,0.6,0.6s0.5,0.2,0.8,0.2s0.6-0.1,0.8-0.2s0.4-0.3,0.6-0.6c0.1-0.2,0.2-0.5,0.2-0.8s-0.1-0.6-0.2-0.8
					c-0.1-0.2-0.3-0.5-0.6-0.6c-0.3-0.2-0.7-0.2-1.1-0.2H139l1-5h4.8v1.7h-3.4l-0.3,1.5h0.7c0.7,0,1.2,0.2,1.8,0.5
					c0.5,0.3,0.9,0.7,1.2,1.2c0.3,0.5,0.4,1.1,0.4,1.7c0,0.5-0.1,0.9-0.3,1.3c-0.2,0.4-0.4,0.8-0.7,1.1s-0.7,0.6-1.1,0.7
					C142.7,105.9,142.2,106,141.8,106L141.8,106z"/>
				<path class="st3" d="M149.2,100.9c-0.5,0-0.9-0.1-1.4-0.4c-0.4-0.2-0.7-0.6-0.9-1c-0.2-0.4-0.4-0.8-0.4-1.3s0.1-0.9,0.4-1.3
					c0.2-0.4,0.6-0.7,0.9-1s0.9-0.4,1.3-0.4s0.9,0.1,1.3,0.4c0.4,0.2,0.7,0.6,0.9,1s0.4,0.8,0.4,1.3c0,0.5-0.1,0.9-0.4,1.3
					c-0.2,0.4-0.6,0.7-1,0.9C150.1,100.8,149.6,100.9,149.2,100.9L149.2,100.9z M149.2,99.2c0.2,0,0.5-0.1,0.6-0.3s0.3-0.4,0.3-0.7
					s-0.1-0.5-0.3-0.7c-0.2-0.2-0.4-0.3-0.6-0.3s-0.5,0.1-0.7,0.3c-0.2,0.2-0.3,0.4-0.3,0.7s0.1,0.5,0.3,0.7
					C148.7,99.1,148.9,99.2,149.2,99.2z"/>
				<path class="st4" d="M129.2,112c-0.6-3-2.7-5.5-5.4-6.8"/>
			</g>
			<g>
				<path class="st4" d="M248.5,184.6c-0.6-3-2.7-5.5-5.4-6.8"/>
				<g>
					<path class="st3" d="M252.3,180.5c-0.6,0-1.2-0.2-1.7-0.5s-0.9-0.7-1.2-1.2s-0.5-1.1-0.5-1.7c0-0.3,0-0.6,0.1-0.9
						s0.2-0.6,0.4-0.9l2.7-4.8h2l-1.8,3.2c0.4,0,0.7,0,1.1,0.1c0.4,0.1,0.7,0.2,1,0.4s0.6,0.4,0.8,0.7c0.2,0.3,0.4,0.6,0.5,0.9
						c0.1,0.4,0.2,0.7,0.2,1.1c0,0.5-0.1,0.9-0.3,1.3s-0.4,0.8-0.8,1.1s-0.7,0.6-1.1,0.8S252.8,180.5,252.3,180.5L252.3,180.5z
						 M252.3,178.8c0.3,0,0.6-0.1,0.9-0.2s0.5-0.4,0.6-0.6c0.1-0.3,0.2-0.6,0.2-0.9c0-0.3-0.1-0.6-0.2-0.9s-0.4-0.5-0.6-0.6
						s-0.6-0.2-0.9-0.2s-0.6,0.1-0.9,0.2s-0.5,0.4-0.6,0.6s-0.2,0.6-0.2,0.9c0,0.3,0.1,0.6,0.2,0.9s0.4,0.5,0.6,0.6
						S252,178.7,252.3,178.8L252.3,178.8z"/>
					<path class="st3" d="M260.5,180.5c-0.6,0-1.1-0.1-1.5-0.4s-0.9-0.6-1.2-1.1s-0.6-1-0.8-1.6s-0.3-1.3-0.3-2s0.1-1.4,0.3-2
						s0.4-1.1,0.8-1.6s0.7-0.8,1.2-1.1s1-0.4,1.5-0.4s1.1,0.1,1.5,0.4s0.9,0.6,1.2,1.1c0.3,0.5,0.6,1,0.8,1.6c0.2,0.6,0.3,1.3,0.3,2
						s-0.1,1.4-0.3,2c-0.2,0.6-0.4,1.1-0.8,1.6c-0.3,0.5-0.7,0.8-1.2,1.1S261,180.5,260.5,180.5z M260.5,178.8
						c0.5,0,0.9-0.2,1.2-0.5c0.3-0.3,0.6-0.7,0.7-1.2c0.2-0.5,0.2-1.1,0.2-1.6c0-0.6-0.1-1.2-0.2-1.7s-0.4-0.9-0.7-1.2
						c-0.3-0.3-0.7-0.5-1.2-0.5c-0.4,0-0.7,0.1-1,0.3c-0.3,0.2-0.5,0.4-0.7,0.8c-0.2,0.3-0.3,0.7-0.4,1.1c-0.1,0.4-0.1,0.8-0.1,1.3
						c0,0.6,0.1,1.1,0.2,1.6s0.4,0.9,0.7,1.2C259.6,178.6,260,178.7,260.5,178.8L260.5,178.8z"/>
					<path class="st3" d="M267.9,175.4c-0.5,0-1-0.1-1.4-0.4s-0.7-0.6-1-1c-0.2-0.4-0.4-0.8-0.4-1.3s0.1-0.9,0.4-1.3
						c0.2-0.4,0.5-0.7,1-1c0.4-0.2,0.9-0.4,1.3-0.4s1,0.1,1.3,0.4c0.4,0.2,0.7,0.6,0.9,1s0.4,0.8,0.4,1.3c0,0.5-0.1,0.9-0.4,1.3
						c-0.2,0.4-0.6,0.7-1,0.9S268.4,175.4,267.9,175.4L267.9,175.4z M267.9,173.6c0.2,0,0.5-0.1,0.6-0.3c0.2-0.2,0.3-0.4,0.3-0.6
						s-0.1-0.5-0.3-0.7c-0.2-0.2-0.4-0.3-0.6-0.3s-0.5,0.1-0.7,0.3c-0.2,0.2-0.3,0.4-0.3,0.7s0.1,0.5,0.3,0.6
						C267.4,173.6,267.6,173.6,267.9,173.6z"/>
				</g>
			</g>
			<g>
				<path class="st4" d="M724.4,174.9c-0.6-3-2.7-5.5-5.5-6.8"/>
				<g>
					<path class="st3" d="M728.6,169.7c-0.6,0-1.2-0.1-1.6-0.4s-0.9-0.6-1.2-1.1s-0.4-1-0.4-1.6c0-0.4,0.1-0.9,0.3-1.3
						s0.5-0.7,0.8-1c-0.3-0.2-0.5-0.5-0.7-0.9s-0.3-0.7-0.3-1.1c0-0.5,0.1-1,0.4-1.4s0.6-0.8,1.1-1c0.5-0.3,1-0.4,1.5-0.4
						s1.1,0.1,1.5,0.4c0.5,0.3,0.8,0.6,1.1,1s0.4,0.9,0.4,1.4c0,0.4-0.1,0.8-0.2,1.1s-0.4,0.6-0.7,0.9c0.3,0.3,0.6,0.6,0.8,1
						c0.2,0.4,0.3,0.8,0.3,1.3c0,0.6-0.2,1.1-0.4,1.5c-0.3,0.5-0.7,0.8-1.2,1.1C729.7,169.5,729.2,169.7,728.6,169.7L728.6,169.7z
						 M728.6,168c0.3,0,0.5-0.1,0.7-0.2s0.4-0.3,0.5-0.5c0.1-0.2,0.2-0.4,0.2-0.7s-0.1-0.5-0.2-0.7s-0.3-0.4-0.5-0.5
						c-0.2-0.1-0.5-0.2-0.7-0.2s-0.5,0.1-0.7,0.2c-0.2,0.1-0.4,0.3-0.5,0.5c-0.1,0.2-0.2,0.4-0.2,0.7s0.1,0.5,0.2,0.7
						s0.3,0.4,0.5,0.5C728.1,167.9,728.4,168,728.6,168z M728.6,163.5c0.2,0,0.4-0.1,0.6-0.2s0.3-0.2,0.5-0.4
						c0.1-0.2,0.2-0.4,0.2-0.6s0-0.4-0.2-0.6s-0.3-0.3-0.5-0.4s-0.4-0.2-0.6-0.2s-0.4,0.1-0.6,0.2c-0.2,0.1-0.3,0.2-0.5,0.4
						c-0.1,0.2-0.2,0.4-0.2,0.6s0.1,0.4,0.2,0.6s0.3,0.3,0.5,0.4C728.2,163.5,728.4,163.5,728.6,163.5z"/>
					<path class="st3" d="M733,169.5V168c0.3-0.2,0.7-0.5,1.1-0.9c0.4-0.3,0.8-0.7,1.3-1.1c0.4-0.4,0.8-0.8,1.2-1.2
						c0.4-0.4,0.7-0.8,0.9-1.1c0.2-0.4,0.3-0.7,0.3-0.9c0-0.3-0.1-0.5-0.2-0.8s-0.3-0.4-0.6-0.6s-0.5-0.2-0.8-0.2s-0.5,0.1-0.8,0.2
						s-0.4,0.3-0.6,0.6c-0.1,0.2-0.2,0.5-0.2,0.8H733c0-0.6,0.2-1.2,0.5-1.7s0.7-0.9,1.2-1.2c0.5-0.3,1-0.4,1.6-0.4s1.1,0.1,1.6,0.4
						s0.9,0.7,1.2,1.2c0.3,0.5,0.4,1,0.4,1.6c0,0.3-0.1,0.6-0.2,1s-0.3,0.6-0.5,1s-0.5,0.7-0.7,1c-0.3,0.3-0.6,0.7-0.9,1
						s-0.7,0.7-1.1,1.1h3.5v1.7L733,169.5L733,169.5z"/>
					<path class="st3" d="M741.9,169.7c-0.2,0-0.5-0.1-0.6-0.3s-0.3-0.4-0.3-0.6s0.1-0.4,0.3-0.6s0.4-0.3,0.6-0.3s0.5,0.1,0.6,0.3
						s0.3,0.4,0.3,0.6s-0.1,0.5-0.3,0.6S742.1,169.7,741.9,169.7z"/>
					<path class="st3" d="M747.5,169.7c-0.6,0-1.2-0.1-1.7-0.5s-0.9-0.7-1.2-1.2c-0.3-0.5-0.4-1.1-0.4-1.7h1.7
						c0,0.3,0.1,0.6,0.2,0.8c0.2,0.2,0.3,0.4,0.6,0.6s0.5,0.2,0.8,0.2s0.6-0.1,0.8-0.2s0.5-0.4,0.6-0.6c0.2-0.2,0.2-0.5,0.2-0.8
						s-0.1-0.6-0.2-0.8c-0.1-0.2-0.3-0.5-0.6-0.6c-0.3-0.1-0.7-0.2-1.1-0.2h-2.5l1-5h4.8v1.7h-3.4l-0.3,1.5h0.7
						c0.7,0,1.2,0.2,1.8,0.5s0.9,0.7,1.2,1.2c0.3,0.5,0.4,1.1,0.4,1.7c0,0.5-0.1,0.9-0.3,1.3c-0.2,0.4-0.4,0.8-0.7,1.1
						c-0.3,0.3-0.7,0.6-1.1,0.7C748.4,169.6,747.9,169.7,747.5,169.7L747.5,169.7z"/>
					<path class="st3" d="M754.8,164.6c-0.5,0-1-0.1-1.3-0.4c-0.4-0.2-0.7-0.6-1-1c-0.2-0.4-0.3-0.8-0.3-1.3s0.1-0.9,0.3-1.3
						c0.2-0.4,0.5-0.7,1-1s0.8-0.4,1.3-0.4s1,0.1,1.3,0.4c0.4,0.2,0.7,0.6,0.9,1s0.3,0.8,0.3,1.3c0,0.5-0.1,0.9-0.4,1.3
						c-0.2,0.4-0.6,0.7-1,0.9S755.3,164.6,754.8,164.6L754.8,164.6z M754.8,162.9c0.2,0,0.5-0.1,0.7-0.3c0.2-0.2,0.3-0.4,0.3-0.6
						s-0.1-0.5-0.3-0.7c-0.2-0.2-0.4-0.3-0.7-0.3s-0.5,0.1-0.7,0.3c-0.2,0.2-0.3,0.4-0.3,0.7s0.1,0.5,0.3,0.6
						C754.4,162.8,754.6,162.9,754.8,162.9z"/>
				</g>
			</g>
		</g>
	</g>
</g>
</svg>
