<svg width="254" height="149" viewBox="0 0 254 149" fill="none" xmlns="http://www.w3.org/2000/svg">
<path d="M43.7521 108.936H29.4566L30.9614 104.818C31.6677 102.898 31.9287 101.668 31.7445 101.146C31.5602 100.623 31.0535 100.362 30.209 100.362C29.2877 100.362 28.4585 100.716 27.7214 101.422C26.9844 102.129 26.3548 103.205 25.8328 104.649C25.1571 106.508 24.9115 107.907 25.1111 108.844C25.28 109.781 26.3088 110.918 28.2282 112.24C33.6946 116.066 36.8577 119.2 37.7483 121.644C38.6389 124.102 38.0861 128.051 36.1053 133.506C34.6619 137.47 33.1111 140.39 31.4374 142.264C29.7637 144.139 27.2915 145.721 24.0055 146.997C20.7195 148.272 17.1879 148.902 13.4412 148.902C9.32606 148.902 6.07079 148.165 3.69075 146.705C1.31072 145.245 0.082312 143.371 0.00553668 141.096C-0.0712387 138.822 0.650449 135.611 2.1706 131.447L3.49114 127.805H17.7867L15.3299 134.581C14.5775 136.671 14.2857 138.008 14.47 138.607C14.6543 139.206 15.2531 139.498 16.2819 139.498C17.3107 139.498 18.2013 139.114 18.9844 138.361C19.7522 137.608 20.4124 136.487 20.9652 134.996C22.1629 131.723 22.4546 129.572 21.8712 128.573C21.257 127.559 19.4758 125.884 16.5122 123.518C13.5487 121.137 11.6447 119.4 10.8001 118.325C9.95562 117.249 9.46426 115.759 9.34142 113.853C9.21858 111.948 9.69458 109.52 10.7694 106.57C12.3203 102.314 14.0247 99.1944 15.898 97.2276C17.7713 95.2608 20.1974 93.7089 23.1917 92.6026C26.1859 91.4963 29.5026 90.9277 33.1571 90.9277C37.1494 90.9277 40.3433 91.5424 42.708 92.7562C45.0727 93.9701 46.3932 95.5067 46.6235 97.3505C46.8692 99.1944 46.1782 102.329 44.5813 106.754L43.7828 108.952L43.7521 108.936Z" fill="black"/>
<path d="M105.942 92.0918L79.5313 147.731H62.2415C63.7617 139.187 65.9114 129.461 68.6599 118.551C66.4027 123.223 61.5812 132.949 54.1801 147.731H36.9824L51.017 92.0918H64.468L58.8634 111.499L53.4431 130.275C57.4814 120.564 63.3931 107.842 71.1628 92.0918H85.5351C85.1359 93.7206 83.4161 99.8361 80.3758 110.438L74.2031 131.612C79.8845 118.137 85.9651 104.968 92.4449 92.0918H105.896H105.942Z" fill="black"/>
<path d="M107.294 92.0918H132.952L128.899 103.232H118.626L114.787 113.788H124.4L120.545 124.375H110.933L106.48 136.606H117.766L113.712 147.746H87.0254L107.263 92.1072L107.294 92.0918Z" fill="black"/>
<path d="M164.996 92.0918L153.557 147.731H137.833L140.643 137.728H135.146L130.586 147.731H114.678L142.762 92.0918H164.996ZM144.221 126.741C145.296 122.347 146.601 117.291 148.152 111.606C148.413 110.653 147.062 110.131 146.616 111.022C143.284 117.645 140.735 122.9 138.969 126.772C138.647 127.463 139.169 128.247 139.921 128.247H142.301C143.207 128.247 144.006 127.632 144.221 126.741Z" fill="black"/>
<path d="M169.652 92.0918L165.598 103.232H174.703L158.504 147.731H173.89L190.089 103.232H202.726L186.542 147.731H201.928L222.166 92.0918H169.652Z" fill="black"/>
<path d="M228.341 92.0918H253.999L249.946 103.232H239.673L235.834 113.788H245.447L241.592 124.375H231.98L227.527 136.606H238.813L234.759 147.746H208.072L228.31 92.1072L228.341 92.0918Z" fill="black"/>
<path d="M175.13 49.6468C174.777 49.4317 174.347 49.3703 173.932 49.3703C161.571 49.4471 155.982 51.5675 144.005 39.0446C135.959 30.6242 133.303 27.9659 127.79 21.9273C126.823 20.867 125.471 20.2678 124.09 20.6519L113.31 23.5868L102.116 26.583C99.9667 27.1516 98.1088 28.5499 96.9571 30.4552L77.9476 61.8778C76.6885 63.9522 78.1933 66.5951 80.5886 66.5951L164.289 66.672C166.638 66.672 168.803 65.4273 169.986 63.3837L173.149 57.9289L176.02 53.1195C176.742 51.921 176.343 50.369 175.145 49.6468H175.13Z" fill="black"/>
<path d="M201.221 0.202738L151.025 13.6016C149.106 14.1547 149.275 16.9359 151.255 17.2432H151.946C151.946 17.2432 167.378 18.7797 173.259 23.4202H173.228C178.204 27.3538 180.645 33.3617 180.645 37.6026C180.645 39.508 183.148 40.1841 184.1 38.5246L204.138 3.99805C205.305 1.98515 203.463 -0.396536 201.236 0.187357L201.221 0.202738Z" fill="black"/>
</svg>
