<svg width="436" height="77" viewBox="0 0 436 77" fill="none" xmlns="http://www.w3.org/2000/svg">
<path d="M205.864 26.723H190.221L191.859 22.2038C192.627 20.0919 192.907 18.7627 192.73 18.172C192.553 17.5812 191.977 17.3006 191.048 17.3006C190.029 17.3006 189.129 17.6846 188.318 18.4674C187.521 19.2501 186.827 20.4168 186.252 22.0118C185.514 24.0499 185.248 25.571 185.455 26.6048C185.632 27.6386 186.768 28.8792 188.864 30.3265C194.84 34.506 198.308 37.9471 199.282 40.635C200.256 43.3228 199.651 47.65 197.482 53.6165C195.903 57.9585 194.206 61.1485 192.376 63.2161C190.546 65.2689 187.831 66.9968 184.23 68.3851C180.629 69.7733 176.778 70.4674 172.675 70.4674C168.16 70.4674 164.618 69.6699 162.006 68.0602C159.409 66.4504 158.066 64.4123 157.977 61.9312C157.889 59.4501 158.686 55.9204 160.338 51.3569L161.785 47.3694H177.427L174.726 54.7832C173.9 57.0724 173.575 58.5344 173.782 59.1843C173.989 59.8341 174.653 60.159 175.759 60.159C176.866 60.159 177.87 59.7455 178.711 58.9184C179.552 58.0914 180.275 56.8656 180.865 55.2263C182.164 51.6375 182.503 49.2893 181.869 48.1965C181.205 47.0888 179.242 45.2427 175.996 42.673C172.764 40.059 170.668 38.1686 169.739 36.9871C168.809 35.8056 168.278 34.1811 168.145 32.0987C168.012 30.0164 168.529 27.358 169.709 24.1237C171.406 19.4568 173.28 16.0453 175.331 13.8891C177.383 11.7329 180.039 10.0493 183.315 8.82349C186.591 7.5977 190.221 6.99219 194.22 6.99219C198.588 6.99219 202.071 7.65677 204.683 8.98594C207.28 10.3151 208.712 11.984 208.977 14.0073C209.243 16.0305 208.49 19.4568 206.734 24.3009L205.864 26.7082V26.723Z" fill="black"/>
<path d="M273.948 8.31836L245.054 69.2239H226.136C227.803 59.8606 230.15 49.2272 233.16 37.2795C230.696 42.3894 225.413 53.0375 217.311 69.2239H198.496L213.858 8.31836H228.585L222.461 29.5703L216.544 50.1133C220.971 39.48 227.434 25.5533 235.934 8.31836H251.68C251.237 10.1054 249.363 16.7955 246.028 28.4036L239.269 51.5754C245.497 36.8364 252.152 22.4076 259.236 8.31836H273.963H273.948Z" fill="black"/>
<path d="M275.424 8.31836H303.506L299.079 20.5024H287.834L283.628 32.0514H294.15L289.93 43.6447H279.408L274.538 57.0398H286.904L282.477 69.2239H253.273L275.424 8.31836Z" fill="black"/>
<path d="M338.583 8.31836L326.069 69.2239H308.862L311.932 58.2804H305.911L300.923 69.2239H283.51L314.248 8.31836H338.597H338.583ZM315.842 46.2588C317.023 41.4442 318.454 35.9208 320.136 29.6884C320.417 28.6399 318.941 28.0787 318.454 29.0534C314.809 36.3048 312.02 42.0645 310.072 46.2883C309.718 47.0563 310.279 47.9128 311.12 47.9128H313.732C314.735 47.9128 315.591 47.2335 315.827 46.2735L315.842 46.2588Z" fill="black"/>
<path d="M343.679 8.31836L339.252 20.5172H349.213L331.49 69.2386H348.328L366.051 20.5172H379.893L362.17 69.2386H379.007L401.158 8.31836H343.679Z" fill="black"/>
<path d="M407.92 8.31836H436.002L431.575 20.5024H420.33L416.124 32.0514H426.646L422.426 43.6447H411.904L407.034 57.0398H419.401L414.973 69.2239H385.77L407.92 8.31836Z" fill="black"/>
<path d="M111.725 57.3468C111.312 57.1105 110.825 57.0219 110.353 57.0219C96.201 57.1105 89.8112 59.5474 76.1021 45.2071C66.8938 35.5632 63.8539 32.5357 57.5527 25.624C56.4459 24.413 54.8964 23.7336 53.3174 24.1619L40.9806 27.5291L28.1716 30.9555C25.7072 31.62 23.597 33.2003 22.2689 35.386L0.517203 71.3327C-0.914217 73.7104 0.797583 76.7379 3.54237 76.7379L99.2999 76.8266C101.986 76.8266 104.48 75.394 105.822 73.0753L109.438 66.8282L112.714 61.3344C113.526 59.9609 113.083 58.1739 111.71 57.3616L111.725 57.3468Z" fill="black"/>
<path d="M141.574 0.777487L84.1401 16.1072C81.9413 16.7423 82.1332 19.9323 84.4057 20.272H85.1879C85.1879 20.272 102.837 22.0294 109.581 27.3461H109.552C115.233 31.8505 118.037 38.7327 118.037 43.5767C118.037 45.7477 120.9 46.5305 121.977 44.6401L144.894 5.13421C146.237 2.83032 144.112 0.0981334 141.574 0.777487Z" fill="black"/>
</svg>
