<?xml version="1.0" encoding="UTF-8"?>
<svg id="_레이어_2" data-name="레이어 2" xmlns="http://www.w3.org/2000/svg" xmlns:xlink="http://www.w3.org/1999/xlink" viewBox="0 0 800 200">
  <defs>
    <style>
      .cls-1 {
        stroke: #464646;
        stroke-linecap: round;
        stroke-miterlimit: 10;
      }

      .cls-1, .cls-2 {
        fill: none;
      }

      .cls-3 {
        fill: #000101;
      }

      .cls-3, .cls-2 {
        stroke-width: 0px;
      }

      .cls-4 {
        clip-path: url(#clippath);
      }

      .cls-5 {
        fill: #221e1f;
        font-family: UrbanistRoman-Bold, Urbanist;
        font-size: 14px;
        font-variation-settings: 'wght' 700;
        font-weight: 700;
      }
    </style>
    <clipPath id="clippath">
      <rect class="cls-2" width="800" height="200"/>
    </clipPath>
  </defs>
  <g id="Layer_1" data-name="Layer 1">
    <g class="cls-4">
      <g id="typo">
        <g>
          <path class="cls-3" d="m378.5,79.01h-23.99l2.52-6.92c1.18-3.23,1.62-5.29,1.32-6.17s-1.15-1.33-2.59-1.33c-1.55,0-2.95.59-4.18,1.79-1.23,1.19-2.29,3-3.17,5.42-1.14,3.12-1.54,5.46-1.22,7.04.28,1.58,2.02,3.48,5.22,5.71,9.17,6.41,14.49,11.68,15.98,15.79,1.49,4.11.57,10.74-2.76,19.89-2.42,6.65-5.03,11.55-7.84,14.71-2.81,3.15-6.97,5.79-12.49,7.93-5.52,2.13-11.44,3.2-17.73,3.2-6.92,0-12.37-1.23-16.36-3.69-3.99-2.46-6.05-5.59-6.18-9.4-.13-3.8,1.08-9.21,3.63-16.2l2.23-6.11h23.99l-4.13,11.36c-1.27,3.5-1.76,5.75-1.44,6.75.31,1,1.32,1.5,3.04,1.5s3.23-.63,4.53-1.9c1.3-1.27,2.4-3.15,3.31-5.65,2-5.5,2.51-9.09,1.53-10.78-1.02-1.69-4.02-4.52-9.01-8.48-4.97-4-8.16-6.9-9.59-8.71-1.43-1.81-2.25-4.31-2.46-7.5-.21-3.19.59-7.26,2.39-12.22,2.6-7.15,5.48-12.38,8.62-15.68,3.15-3.31,7.23-5.89,12.24-7.76s10.59-2.8,16.73-2.8c6.71,0,12.05,1.02,16.04,3.06,3.98,2.04,6.18,4.6,6.59,7.7.41,3.1-.74,8.35-3.44,15.77l-1.34,3.69Z"/>
          <path class="cls-3" d="m482.91,50.76l-44.33,93.36h-29.03c2.56-14.34,6.16-30.66,10.78-48.96-3.78,7.84-11.88,24.16-24.3,48.96h-28.86l23.57-93.36h22.59l-9.4,32.57-9.09,31.49c6.79-16.3,16.71-37.65,29.75-64.06h24.14c-.67,2.73-3.56,13-8.67,30.79l-10.36,35.52c9.55-22.6,19.76-44.7,30.63-66.31h22.59Z"/>
          <path class="cls-3" d="m485.19,50.76h43.08l-6.8,18.68h-17.24l-6.45,17.7h16.14l-6.47,17.76h-16.14l-7.47,20.53h18.96l-6.8,18.68h-44.8l33.98-93.36Z"/>
          <path class="cls-3" d="m582.07,50.76l-19.21,93.36h-26.4l4.72-16.78h-9.24l-7.66,16.78h-26.71l47.16-93.36h37.34Zm-34.88,58.14c1.81-7.38,4-15.85,6.59-25.4.44-1.61-1.82-2.47-2.57-.98-5.6,11.12-9.88,19.93-12.85,26.43-.53,1.17.33,2.48,1.61,2.48h4c1.53,0,2.86-1.03,3.22-2.52Z"/>
          <polygon class="cls-3" points="589.87 50.76 583.07 69.44 598.35 69.44 571.17 144.11 597.01 144.11 624.19 69.44 645.42 69.44 618.24 144.11 644.07 144.11 678.05 50.76 589.87 50.76"/>
          <path class="cls-3" d="m688.42,50.76h43.08l-6.8,18.68h-17.24l-6.45,17.7h16.14l-6.47,17.76h-16.14l-7.47,20.53h18.96l-6.8,18.68h-44.8l33.98-93.36Z"/>
        </g>
      </g>
      <g id="symbol">
        <path class="cls-3" d="m234.06,125.95c-.62-.37-1.37-.49-2.09-.49-21.7.13-31.52,3.86-52.53-18.12-14.13-14.77-18.79-19.43-28.46-30.02-1.7-1.86-4.07-2.91-6.5-2.24l-18.92,5.15h0s-19.64,5.25-19.64,5.25c-3.78,1.01-7.03,3.44-9.06,6.79l-33.37,55.11c-2.2,3.64.43,8.28,4.64,8.28l146.89.14c4.12,0,7.94-2.19,10-5.76l5.56-9.57,5.03-8.43c1.26-2.1.57-4.84-1.55-6.09Z"/>
        <path class="cls-3" d="m279.84,39.23l-88.09,23.49h0c-3.38.97-3.07,5.85.4,6.39l1.2-.03s27.08,2.73,37.42,10.88h-.05c8.72,6.91,13.01,17.45,13.01,24.88,0,3.33,4.38,4.53,6.05,1.62l35.16-60.55c2.05-3.53-1.19-7.72-5.1-6.67Z"/>
      </g>
      <g id="lines">
        <line class="cls-1" x1="327.33" y1="-28.57" x2="179.75" y2="229.9"/>
        <line class="cls-1" x1="167.77" y1="-24.28" x2="20.19" y2="219.16"/>
        <line class="cls-1" x1="-17.02" y1="155.81" x2="800" y2="155.81"/>
        <line class="cls-1" x1="357" y1="-23.49" x2="267.16" y2="235.74"/>
        <line class="cls-1" x1="754.15" y1="-14.7" x2="670.73" y2="230.91"/>
        <line class="cls-1" x1="298.23" y1="146.08" x2="798.69" y2="146.08"/>
        <line class="cls-1" x1="332.17" y1="48.97" x2="800" y2="49.01"/>
        <line class="cls-1" x1="-16.44" y1="118.21" x2="453.93" y2="-7.12"/>
      </g>
      <g id="_60deg" data-name="60deg">
        <path class="cls-1" d="m231.52,155.81c-.62-3.04-2.69-5.53-5.45-6.77"/>
        <text class="cls-5" transform="translate(231.52 151.47)"><tspan x="0" y="0">60°</tspan></text>
      </g>
      <g id="_45deg" data-name="45deg">
        <path class="cls-1" d="m112.22,83.23c-.62-3.04-2.69-5.53-5.45-6.77"/>
        <text class="cls-5" transform="translate(112.81 77.02)"><tspan x="0" y="0">45°</tspan></text>
      </g>
      <g id="_82deg" data-name="82deg">
        <path class="cls-1" d="m707.94,146.05c-.62-3.04-2.69-5.53-5.45-6.77"/>
        <text class="cls-5" transform="translate(708.36 140.69)"><tspan x="0" y="0">82.5°</tspan></text>
      </g>
    </g>
  </g>
</svg>