<?xml version="1.0" encoding="UTF-8"?>
<svg id="_레이어_2" data-name="레이어 2" xmlns="http://www.w3.org/2000/svg" xmlns:xlink="http://www.w3.org/1999/xlink" viewBox="0 0 600 382">
  <defs>
    <style>
      .cls-1 {
        stroke: #464646;
        stroke-linecap: round;
        stroke-miterlimit: 10;
      }

      .cls-1, .cls-2 {
        fill: none;
      }

      .cls-3 {
        letter-spacing: .02em;
      }

      .cls-4 {
        fill: #000101;
      }

      .cls-4, .cls-2 {
        stroke-width: 0px;
      }

      .cls-5 {
        letter-spacing: .02em;
      }

      .cls-6 {
        clip-path: url(#clippath);
      }

      .cls-7 {
        letter-spacing: 0em;
      }

      .cls-8 {
        fill: #221e1f;
        font-family: UrbanistRoman-Bold, Urbanist;
        font-size: 14px;
        font-variation-settings: 'wght' 700;
        font-weight: 700;
      }
    </style>
    <clipPath id="clippath">
      <rect class="cls-2" width="600" height="382"/>
    </clipPath>
  </defs>
  <g id="Layer_1" data-name="Layer 1">
    <g class="cls-6">
      <line class="cls-1" x1="497.04" y1="-54.48" x2="347.71" y2="206.61"/>
      <line class="cls-1" x1="334" y1="-38.23" x2="184.91" y2="206.67"/>
      <line class="cls-1" x1="-145.44" y1="185.98" x2="733.81" y2="185.98"/>
      <line class="cls-1" x1="515.52" y1="206.62" x2="428.92" y2="457.24"/>
      <line class="cls-1" x1="103.88" y1="206.6" x2="17.17" y2="457.34"/>
      <line class="cls-1" x1="-156.09" y1="327.81" x2="770.13" y2="327.81"/>
      <line class="cls-1" x1="-153.49" y1="227.79" x2="674.74" y2="227.83"/>
      <line class="cls-1" x1="125.32" y1="148.08" x2="571.09" y2="29.56"/>
      <g>
        <text class="cls-8" transform="translate(483.1 321.82)"><tspan x="0" y="0">82.</tspan><tspan class="cls-3" x="18.79" y="0">5</tspan><tspan class="cls-7" x="27.11" y="0">°</tspan></text>
        <path class="cls-1" d="m482.65,327.47c-.65-3.2-2.84-5.83-5.74-7.14"/>
      </g>
      <g>
        <text class="cls-8" transform="translate(370.27 181.42)"><tspan x="0" y="0">6</tspan><tspan class="cls-5" x="7.69" y="0">0</tspan><tspan x="16.43" y="0">°</tspan></text>
        <path class="cls-1" d="m369.7,185.98c-.65-3.2-2.84-5.83-5.74-7.14"/>
      </g>
      <g>
        <text class="cls-8" transform="translate(253.71 106.55)"><tspan x="0" y="0">4</tspan><tspan class="cls-5" x="8.11" y="0">5</tspan><tspan x="16.43" y="0">°</tspan></text>
        <path class="cls-1" d="m252.44,114.18c-.65-3.2-2.84-5.83-5.74-7.14"/>
      </g>
      <g>
        <g>
          <path class="cls-4" d="m144.1,258.87h-24.66l2.59-7.11c1.21-3.32,1.66-5.43,1.36-6.34-.3-.91-1.19-1.36-2.66-1.36-1.6,0-3.03.61-4.3,1.84-1.27,1.23-2.35,3.08-3.26,5.57-1.17,3.2-1.58,5.62-1.25,7.24.29,1.62,2.08,3.58,5.37,5.87,9.42,6.59,14.9,12,16.43,16.23,1.53,4.23.58,11.04-2.84,20.45-2.49,6.84-5.17,11.88-8.06,15.12-2.88,3.24-7.16,5.96-12.84,8.15-5.68,2.19-11.76,3.29-18.23,3.29-7.11,0-12.71-1.27-16.82-3.79-4.1-2.53-6.22-5.75-6.35-9.67-.13-3.91,1.11-9.46,3.73-16.65l2.29-6.28h24.67l-4.25,11.68c-1.31,3.6-1.8,5.91-1.48,6.94.32,1.03,1.36,1.54,3.13,1.54s3.32-.65,4.66-1.96c1.34-1.3,2.47-3.24,3.41-5.81,2.06-5.65,2.58-9.35,1.58-11.09-1.05-1.74-4.14-4.64-9.26-8.71-5.11-4.11-8.39-7.09-9.86-8.95-1.47-1.86-2.31-4.43-2.52-7.71-.22-3.28.6-7.47,2.46-12.57,2.68-7.35,5.63-12.72,8.86-16.12,3.23-3.4,7.43-6.06,12.59-7.97s10.89-2.88,17.2-2.88c6.9,0,12.39,1.05,16.49,3.14,4.09,2.09,6.35,4.73,6.77,7.91.42,3.18-.76,8.59-3.54,16.21l-1.38,3.79Z"/>
          <path class="cls-4" d="m251.44,229.83l-45.57,95.97h-29.84c2.63-14.74,6.33-31.52,11.08-50.33-3.89,8.06-12.22,24.84-24.98,50.33h-29.67l24.23-95.97h23.22l-9.66,33.48-9.34,32.37c6.98-16.75,17.17-38.7,30.58-65.86h24.82c-.69,2.81-3.66,13.36-8.91,31.65l-10.65,36.52c9.81-23.23,20.31-45.96,31.48-68.17h23.22Z"/>
          <path class="cls-4" d="m253.78,229.83h44.28l-6.99,19.21h-17.73l-6.63,18.2h16.59l-6.65,18.26h-16.59l-7.68,21.1h19.49l-6.99,19.21h-46.05l34.93-95.97Z"/>
          <path class="cls-4" d="m353.37,229.83l-19.74,95.97h-27.14l4.85-17.25h-9.5l-7.87,17.25h-27.46l48.48-95.97h38.39Zm-35.86,59.76c1.86-7.59,4.12-16.3,6.78-26.11.45-1.66-1.88-2.54-2.65-1.01-5.75,11.43-10.16,20.49-13.21,27.17-.55,1.2.33,2.55,1.65,2.55h4.11c1.58,0,2.94-1.06,3.31-2.59Z"/>
          <polygon class="cls-4" points="361.39 229.83 354.4 249.03 370.11 249.03 342.17 325.8 368.73 325.8 396.67 249.03 418.5 249.03 390.55 325.8 417.11 325.8 452.04 229.83 361.39 229.83"/>
          <path class="cls-4" d="m462.71,229.83h44.28l-6.99,19.21h-17.73l-6.63,18.2h16.59l-6.65,18.26h-16.59l-7.68,21.1h19.49l-6.99,19.21h-46.05l34.93-95.97Z"/>
        </g>
        <g>
          <path class="cls-4" d="m370.88,156.62c-.61-.36-1.35-.49-2.06-.48-21.34.13-30.99,3.8-51.67-17.82-13.89-14.53-18.48-19.11-27.99-29.52-1.67-1.83-4.01-2.86-6.39-2.21l-18.61,5.07h0s-19.32,5.16-19.32,5.16c-3.72.99-6.91,3.39-8.91,6.68l-32.82,54.2c-2.17,3.58.42,8.15,4.57,8.15l144.46.14c4.05,0,7.8-2.15,9.84-5.66l5.46-9.42,4.95-8.29c1.24-2.07.56-4.76-1.52-5.99Z"/>
          <path class="cls-4" d="m415.91,71.34l-86.64,23.1h0c-3.32.95-3.02,5.76.39,6.29l1.18-.03s26.63,2.69,36.8,10.7h-.05c8.57,6.79,12.79,17.16,12.79,24.47,0,3.28,4.31,4.45,5.95,1.59l34.58-59.55c2.01-3.47-1.17-7.59-5.01-6.56Z"/>
        </g>
      </g>
    </g>
  </g>
</svg>