<svg width="420" height="97" viewBox="0 0 420 97" fill="none" xmlns="http://www.w3.org/2000/svg">
<path d="M72.3476 30.3576H48.7087L51.1971 23.5529C52.365 20.3791 52.7967 18.3478 52.492 17.4846C52.1873 16.6213 51.3494 16.1896 49.9529 16.1896C48.4295 16.1896 47.0584 16.7736 45.8396 17.9416C44.6209 19.1095 43.5798 20.8869 42.7165 23.2736C41.5993 26.3459 41.1931 28.6564 41.5232 30.2053C41.8025 31.7541 43.5036 33.6331 46.6775 35.8167C55.7166 42.139 60.9472 47.3187 62.4198 51.3559C63.8925 55.4184 62.9784 61.9438 59.703 70.9576C57.3163 77.5084 54.7518 82.3326 51.9842 85.4303C49.2166 88.5279 45.1287 91.1432 39.695 93.2507C34.2614 95.3581 28.4215 96.3991 22.2261 96.3991C15.4214 96.3991 10.0386 95.1804 6.10298 92.7682C2.1674 90.3561 0.136109 87.2585 0.00915528 83.5006C-0.117799 79.7428 1.07558 74.4361 3.58927 67.5552L5.77288 61.5375H29.4117L25.3492 72.7349C24.1051 76.188 23.6226 78.3971 23.9273 79.3873C24.232 80.3776 25.2223 80.86 26.9234 80.86C28.6246 80.86 30.0973 80.2252 31.3922 78.9811C32.6618 77.7369 33.7536 75.8834 34.6676 73.4205C36.6481 68.0122 37.1306 64.4575 36.1657 62.8071C35.1501 61.1313 32.2047 58.3637 27.3043 54.4535C22.4039 50.518 19.2554 47.6488 17.8589 45.8714C16.4624 44.0941 15.6499 41.6312 15.4468 38.4827C15.2437 35.3343 16.0308 31.3225 17.8081 26.4475C20.3726 19.4142 23.191 14.2599 26.2887 11.0099C29.3864 7.75983 33.3981 5.19541 38.3493 3.36727C43.3005 1.53914 48.7849 0.599609 54.8279 0.599609C61.4295 0.599609 66.7108 1.61525 70.621 3.62112C74.5312 5.62699 76.7149 8.16613 77.0957 11.213C77.502 14.2599 76.3593 19.4396 73.7187 26.7522L72.3984 30.383L72.3476 30.3576Z" fill="black"/>
<path d="M175.182 2.5293L131.51 94.4693H102.92C105.434 80.3521 108.989 64.2797 113.534 46.2522C109.801 53.9711 101.828 70.0434 89.59 94.4693H61.1523L84.3595 2.5293H106.602L97.3343 34.5979L88.3713 65.6254C95.0491 49.5785 104.824 28.5549 117.672 2.5293H141.438C140.778 5.22072 137.934 15.3263 132.907 32.8459L122.7 67.8344C132.094 45.5667 142.149 23.8068 152.864 2.5293H175.106H175.182Z" fill="black"/>
<path d="M177.416 2.5293H219.844L213.141 20.9376H196.155L189.807 38.3811H205.702L199.329 55.8754H183.434L176.071 76.0864H194.733L188.03 94.4948H143.9L177.365 2.55471L177.416 2.5293Z" fill="black"/>
<path d="M272.835 2.5293L253.918 94.4693H227.918L232.565 77.94H223.475L215.934 94.4693H189.629L236.069 2.5293H272.835ZM238.481 59.7856C240.258 52.5238 242.416 44.1702 244.981 34.7756C245.413 33.2014 243.178 32.3381 242.442 33.8108C236.932 44.7542 232.717 53.4379 229.797 59.8363C229.264 60.9789 230.127 62.2738 231.371 62.2738H235.307C236.805 62.2738 238.125 61.2583 238.481 59.7856Z" fill="black"/>
<path d="M280.528 2.5293L273.824 20.9376H288.881L262.094 94.4693H287.535L314.323 20.9376H335.219L308.457 94.4693H333.899L367.364 2.5293H280.528Z" fill="black"/>
<path d="M377.573 2.5293H420.001L413.297 20.9376H396.311L389.963 38.3811H405.858L399.485 55.8754H383.59L376.227 76.0864H394.889L388.186 94.4948H344.057L377.522 2.55471L377.573 2.5293Z" fill="black"/>
</svg>
