<svg width="210" height="111" viewBox="0 0 210 111" fill="none" xmlns="http://www.w3.org/2000/svg">
<path d="M161.443 82.3747C160.859 82.0193 160.149 81.9177 159.463 81.9177C139.023 82.0447 129.781 85.5486 109.976 64.8552C96.6716 50.9411 92.279 46.5484 83.1637 36.5699C81.5641 34.8179 79.3297 33.8277 77.0445 34.4625L59.2202 39.3121L40.7103 44.2633C37.1556 45.2027 34.0833 47.5133 32.179 50.6618L0.7452 102.586C-1.33684 106.013 1.15146 110.381 5.11242 110.381L143.518 110.508C147.402 110.508 150.982 108.451 152.938 105.074L158.168 96.0603L162.916 88.113C164.109 86.1326 163.449 83.5681 161.469 82.3747H161.443Z" fill="black"/>
<path d="M204.584 0.665828L121.582 22.8065C118.408 23.7206 118.687 28.3163 121.963 28.8241H123.105C123.105 28.8241 148.623 31.3631 158.348 39.0311H158.297C166.524 45.5312 170.561 55.4589 170.561 62.4668C170.561 65.6152 174.7 66.7324 176.274 63.9902L209.409 6.93733C211.338 3.61115 208.292 -0.324434 204.61 0.640413L204.584 0.665828Z" fill="black"/>
</svg>
