<svg width="426" height="116" viewBox="0 0 426 116" fill="none" xmlns="http://www.w3.org/2000/svg">
<path d="M187.117 45.7693H170.88L172.581 41.079C173.377 38.887 173.668 37.5075 173.484 36.8944C173.3 36.2813 172.703 35.99 171.738 35.99C170.681 35.99 169.747 36.3886 168.904 37.2009C168.077 38.0133 167.357 39.2243 166.76 40.8797C165.994 42.995 165.718 44.5738 165.933 45.6467C166.116 46.7197 167.296 48.0072 169.471 49.5094C175.675 53.8472 179.274 57.4187 180.285 60.2084C181.296 62.9981 180.668 67.4893 178.417 73.6818C176.778 78.1883 175.016 81.4991 173.117 83.6451C171.217 85.7757 168.399 87.5691 164.661 89.0099C160.924 90.4507 156.926 91.1712 152.668 91.1712C147.98 91.1712 144.304 90.3434 141.593 88.6727C138.897 87.0019 137.503 84.8866 137.411 82.3115C137.319 79.7364 138.146 76.073 139.862 71.3366L141.363 67.198H157.6L154.797 74.8927C153.939 77.2686 153.602 78.7861 153.816 79.4605C154.031 80.1349 154.72 80.4721 155.869 80.4721C157.018 80.4721 158.059 80.043 158.932 79.1846C159.806 78.3262 160.556 77.054 161.169 75.3526C162.517 71.6278 162.869 69.1907 162.21 68.0564C161.521 66.9068 159.484 64.9908 156.114 62.3237C152.759 59.6106 150.584 57.6486 149.619 56.4224C148.654 55.1961 148.103 53.51 147.965 51.3488C147.827 49.1875 148.363 46.4285 149.589 43.0716C151.35 38.2279 153.296 34.6872 155.425 32.4493C157.554 30.2114 160.311 28.4639 163.712 27.1917C167.112 25.9195 170.88 25.291 175.031 25.291C179.565 25.291 183.18 25.9808 185.892 27.3603C188.587 28.7398 190.073 30.4719 190.349 32.5719C190.625 34.6718 189.843 38.2279 188.021 43.2555L187.117 45.754V45.7693Z" fill="black"/>
<path d="M257.78 26.6367L227.788 89.8498H208.151C209.882 80.1318 212.317 69.0955 215.442 56.6951C212.884 61.9986 207.4 73.0502 198.991 89.8498H179.461L195.407 26.6367H210.694L204.337 48.6938L198.194 70.0152C202.79 58.979 209.499 44.5246 218.322 26.6367H234.666C234.206 28.4914 232.261 35.4351 228.799 47.4829L221.784 71.5327C228.248 56.2353 235.156 41.2597 242.508 26.6367H257.795H257.78Z" fill="black"/>
<path d="M259.306 26.6367H288.456L283.86 39.2824H272.188L267.823 51.269H278.744L274.363 63.3015H263.442L258.387 77.2041H271.223L266.628 89.8498H236.314L259.306 26.6367Z" fill="black"/>
<path d="M324.869 26.6367L311.879 89.8498H294.019L297.205 78.4916H290.955L285.778 89.8498H267.703L299.61 26.6367H324.884H324.869ZM301.264 65.9993C302.489 61.0023 303.975 55.2696 305.722 48.8011C306.013 47.7129 304.481 47.1304 303.975 48.142C300.192 55.6681 297.297 61.6461 295.275 66.0299C294.907 66.827 295.489 67.716 296.362 67.716H299.074C300.115 67.716 301.004 67.0109 301.249 66.0146L301.264 65.9993Z" fill="black"/>
<path d="M330.158 26.6367L325.563 39.2824H335.902L317.506 89.8498H334.983L353.38 39.2824H367.748L349.351 89.8498H366.829L389.821 26.6367H330.158Z" fill="black"/>
<path d="M396.851 26.6367H426.001L421.405 39.2824H409.733L405.368 51.269H416.289L411.908 63.3015H400.987L395.932 77.2041H408.768L404.173 89.8498H373.859L396.851 26.6367Z" fill="black"/>
<path d="M99.8098 0.617188H15.3789C6.88538 0.617188 0 7.50725 0 16.0066V100.495C0 108.994 6.88538 115.884 15.3789 115.884H99.8098C108.303 115.884 115.189 108.994 115.189 100.495V16.0066C115.189 7.50725 108.303 0.617188 99.8098 0.617188Z" fill="black"/>
<path d="M80.7768 69.2967C80.5318 69.1588 80.2407 69.1128 79.965 69.1128C71.5709 69.1588 67.7722 70.5996 59.6385 62.1078C54.1701 56.3905 52.3779 54.5818 48.6251 50.4892C47.9664 49.7687 47.0474 49.3702 46.113 49.6154L38.7912 51.6081L31.1936 53.6314C29.7231 54.0299 28.4824 54.965 27.6859 56.2678L14.7731 77.6046C13.9153 79.0147 14.9416 80.8081 16.5652 80.8081L73.3784 80.8541C74.9715 80.8541 76.4419 80.0111 77.2538 78.6315L79.3983 74.9221L81.3436 71.6572C81.8338 70.8449 81.558 69.7872 80.7462 69.2967H80.7768Z" fill="white"/>
<path d="M98.4743 35.7199L64.4078 44.8095C63.1058 45.1774 63.213 47.0781 64.561 47.2773H65.0205C65.0205 47.2773 75.4978 48.3196 79.4957 51.4772H79.4804C82.8503 54.1443 84.5046 58.2369 84.5046 61.1033C84.5046 62.3908 86.2048 62.8507 86.8482 61.7317L100.45 38.2951C101.247 36.9309 99.9907 35.3061 98.4743 35.7199Z" fill="white"/>
</svg>
