<svg width="363" height="572" viewBox="0 0 363 572" fill="none" xmlns="http://www.w3.org/2000/svg">
<path d="M69.0965 507.731H49.798L51.825 502.168C52.7751 499.57 53.1235 497.913 52.8913 497.206C52.659 496.498 51.9622 496.139 50.8115 496.139C49.5658 496.139 48.4467 496.614 47.4543 497.575C46.462 498.536 45.6174 499.982 44.8995 501.935C43.9916 504.437 43.6643 506.327 43.9177 507.594C44.1394 508.861 45.5435 510.392 48.1194 512.186C55.4883 517.349 59.7745 521.582 60.9781 524.887C62.171 528.191 61.432 533.522 58.7611 540.881C56.808 546.233 54.7177 550.171 52.4584 552.705C50.1992 555.238 46.8526 557.36 42.4186 559.081C37.974 560.791 33.2233 561.657 28.1559 561.657C22.5923 561.657 18.211 560.665 15.0017 558.691C11.7923 556.716 10.1348 554.193 10.0292 551.132C9.92368 548.07 10.8949 543.731 12.943 538.104L14.7377 533.184H34.0362L30.7107 542.316C29.6867 545.135 29.296 546.94 29.5494 547.743C29.8028 548.545 30.6157 548.946 31.9987 548.946C33.3817 548.946 34.5957 548.44 35.6409 547.416C36.6861 546.391 37.5728 544.882 38.3013 542.876C39.906 538.452 40.3177 535.56 39.5365 534.198C38.713 532.836 36.306 530.566 32.2943 527.378C28.3037 524.169 25.7277 521.825 24.577 520.379C23.4263 518.922 22.7717 516.916 22.6028 514.35C22.4339 511.785 23.0779 508.512 24.5242 504.522C26.6145 498.768 28.9265 494.566 31.4603 491.906C33.994 489.246 37.2772 487.166 41.3101 485.667C45.3429 484.168 49.8297 483.418 54.7599 483.418C60.1546 483.418 64.4514 484.241 67.6607 485.878C70.8595 487.514 72.6331 489.583 72.9604 492.064C73.2877 494.556 72.3692 498.779 70.1944 504.754L69.1176 507.721L69.0965 507.731Z" fill="#006CFA"/>
<path d="M153.067 485.011L117.415 560.093H94.0734C96.132 548.554 99.0247 535.432 102.741 520.715C99.7004 527.028 93.1866 540.151 83.1995 560.093H59.9844L78.945 485.011H97.1139L89.5549 511.203L82.2494 536.53C87.7074 523.428 95.6886 506.252 106.172 485H125.587C125.048 487.196 122.726 495.452 118.619 509.767L110.289 538.335C117.964 520.155 126.178 502.377 134.919 485H153.088L153.067 485.011Z" fill="#006CFA"/>
<path d="M154.894 485.016H189.542L184.074 500.038H170.202L165.018 514.28H178.003L172.799 528.564H159.813L153.806 545.075H169.051L163.582 560.098H127.551L154.883 485.016H154.894Z" fill="#006CFA"/>
<path d="M204.757 531.773C206.214 525.83 207.977 519.02 210.056 511.345C210.405 510.047 208.589 509.36 207.987 510.553C203.49 519.495 200.038 526.579 197.652 531.805C197.219 532.745 197.916 533.8 198.95 533.8H202.16C203.395 533.8 204.461 532.966 204.757 531.773ZM232.818 485.016L217.373 560.098H196.142L199.932 546.606H192.5L186.345 560.098H164.861L202.783 485.016H232.818Z" fill="#006CFA"/>
<path d="M239.086 485.016L233.618 500.038H245.917L224.053 560.098H244.829L266.693 500.038H283.764L261.9 560.098H282.677L310.009 485.016H239.086Z" fill="#006CFA"/>
<path d="M318.351 485.016H352.999L347.531 500.038H333.659L328.475 514.28H341.46L336.256 528.564H323.27L317.263 545.075H332.508L327.039 560.098H291.008L318.34 485.016H318.351Z" fill="#006CFA"/>
<path d="M69.0965 440.165H49.798L51.825 434.601C52.7751 432.004 53.1235 430.347 52.8913 429.639C52.659 428.932 51.9622 428.573 50.8115 428.573C49.5658 428.573 48.4467 429.048 47.4543 430.009C46.462 430.969 45.6174 432.416 44.8995 434.369C43.9916 436.871 43.6749 438.761 43.9177 440.027C44.1605 441.294 45.5435 442.825 48.1194 444.62C55.4883 449.782 59.7745 454.016 60.9781 457.32C62.171 460.624 61.432 465.956 58.7611 473.314C56.808 478.667 54.7177 482.605 52.4584 485.138C50.1992 487.672 46.8526 489.794 42.4186 491.515C37.974 493.225 33.2233 494.091 28.1559 494.091C22.5923 494.091 18.211 493.098 15.0017 491.124C11.7923 489.15 10.1348 486.627 10.0292 483.565C9.92368 480.504 10.8949 476.165 12.943 470.538L14.7377 465.618H34.0362L30.7107 474.75C29.6867 477.569 29.296 479.374 29.5494 480.176C29.8028 480.979 30.6157 481.38 31.9987 481.38C33.3817 481.38 34.5957 480.873 35.6409 479.849C36.6861 478.825 37.5728 477.315 38.3013 475.31C39.906 470.886 40.3283 467.993 39.5365 466.632C38.7447 465.27 36.2954 463.01 32.2943 459.812C28.2931 456.613 25.7277 454.259 24.577 452.812C23.4263 451.355 22.7717 449.349 22.6028 446.784C22.4339 444.219 23.0779 440.946 24.5242 436.955C26.6145 431.202 28.9265 427 31.4603 424.34C33.994 421.679 37.2772 419.599 41.3101 418.1C45.3429 416.601 49.8297 415.852 54.7599 415.852C60.1546 415.852 64.4514 416.675 67.6607 418.311C70.8595 419.948 72.6331 422.017 72.9604 424.498C73.2877 426.989 72.3692 431.212 70.1944 437.188L69.1176 440.154L69.0965 440.165Z" fill="#1D80D6"/>
<path d="M153.067 417.432L117.415 492.515H94.0734C96.132 480.976 99.0247 467.853 102.741 453.137C99.7004 459.45 93.1866 472.573 83.1995 492.515H59.9844L78.945 417.432H97.1139L89.5549 443.625L82.2494 468.951C87.7074 455.85 95.6886 438.673 106.172 417.422H125.587C125.048 419.618 122.726 427.873 118.619 442.189L110.289 470.757C117.964 452.577 126.178 434.799 134.919 417.422H153.088L153.067 417.432Z" fill="#1D80D6"/>
<path d="M154.894 417.438H189.543L184.074 432.46H170.202L165.018 446.702H178.004L172.799 460.986H159.824L153.817 477.497H169.062L163.593 492.52H127.572L154.894 417.438Z" fill="#1D80D6"/>
<path d="M204.757 464.195C206.214 458.252 207.977 451.442 210.056 443.767C210.405 442.469 208.589 441.782 207.987 442.975C203.49 451.917 200.038 459.001 197.652 464.227C197.219 465.166 197.916 466.222 198.95 466.222H202.16C203.395 466.222 204.461 465.388 204.757 464.195ZM232.818 417.438L217.373 492.52H196.142L199.932 479.028H192.5L186.345 492.52H164.861L202.783 417.438H232.818Z" fill="#1D80D6"/>
<path d="M239.086 417.438L233.618 432.46H245.917L224.053 492.52H244.829L266.693 432.46H283.764L261.9 492.52H282.677L310.009 417.438H239.086Z" fill="#1D80D6"/>
<path d="M318.35 417.438H352.999L347.53 432.46H333.658L328.474 446.702H341.46L336.255 460.986H323.28L317.273 477.497H332.518L327.049 492.52H291.018L318.35 417.438Z" fill="#1D80D6"/>
<path d="M69.0965 372.575H49.798L51.825 367.011C52.7751 364.414 53.1235 362.757 52.8913 362.049C52.659 361.342 51.9622 360.983 50.8115 360.983C49.5658 360.983 48.4467 361.458 47.4543 362.419C46.462 363.38 45.6174 364.826 44.8995 366.779C43.9916 369.281 43.6749 371.171 43.9177 372.438C44.1605 373.705 45.5435 375.235 48.1194 377.03C55.4883 382.192 59.7745 386.426 60.9781 389.73C62.171 393.035 61.432 398.366 58.7611 405.724C56.808 411.077 54.7177 415.015 52.4584 417.548C50.1992 420.082 46.8526 422.204 42.4186 423.925C37.974 425.635 33.2233 426.501 28.1559 426.501C22.5923 426.501 18.211 425.509 15.0017 423.534C11.7923 421.56 10.1348 419.037 10.0292 415.975C9.92368 412.914 10.8949 408.575 12.943 402.948L14.7377 398.028H34.0362L30.7107 407.16C29.6867 409.979 29.296 411.784 29.5494 412.587C29.8028 413.389 30.6157 413.79 31.9987 413.79C33.3817 413.79 34.5957 413.283 35.6409 412.259C36.6861 411.235 37.5728 409.726 38.3013 407.72C39.906 403.296 40.3283 400.404 39.5365 399.042C38.7447 397.68 36.2954 395.421 32.2943 392.222C28.2931 389.023 25.7277 386.669 24.577 385.222C23.4263 383.765 22.7717 381.76 22.6028 379.194C22.4339 376.629 23.0779 373.356 24.5242 369.366C26.6145 363.612 28.9265 359.41 31.4603 356.75C33.994 354.089 37.2772 352.01 41.3101 350.51C45.3429 349.011 49.8297 348.262 54.7599 348.262C60.1546 348.262 64.4514 349.085 67.6607 350.722C70.8595 352.358 72.6331 354.427 72.9604 356.908C73.2877 359.4 72.3692 363.622 70.1944 369.598L69.1176 372.564L69.0965 372.575Z" fill="#3A95B3"/>
<path d="M153.067 349.854L117.415 424.937H94.0734C96.132 413.398 99.0247 400.275 102.741 385.559C99.7004 391.872 93.1866 404.994 83.1995 424.937H59.9844L78.945 349.854H97.1139L89.5549 376.047L82.2494 401.373C87.7074 388.272 95.6886 371.095 106.172 349.844H125.587C125.048 352.04 122.726 360.295 118.619 374.611L110.289 403.179C117.964 384.999 126.178 367.221 134.919 349.844H153.088L153.067 349.854Z" fill="#3A95B3"/>
<path d="M154.894 349.844H189.543L184.074 364.867H170.202L165.018 379.108H178.004L172.799 393.392H159.824L153.817 409.903H169.062L163.593 424.926H127.572L154.894 349.844Z" fill="#3A95B3"/>
<path d="M204.757 396.601C206.214 390.658 207.977 383.848 210.056 376.173C210.405 374.875 208.589 374.189 207.987 375.382C203.49 384.323 200.038 391.407 197.652 396.633C197.219 397.573 197.916 398.628 198.95 398.628H202.16C203.395 398.628 204.461 397.794 204.757 396.601ZM232.818 349.844L217.373 424.926H196.142L199.932 411.434H192.5L186.345 424.926H164.861L202.783 349.844H232.818Z" fill="#3A95B3"/>
<path d="M239.086 349.844L233.618 364.867H245.917L224.053 424.926H244.829L266.693 364.867H283.764L261.9 424.926H282.677L310.009 349.844H239.086Z" fill="#3A95B3"/>
<path d="M318.35 349.844H352.999L347.53 364.867H333.658L328.474 379.108H341.46L336.255 393.392H323.28L317.273 409.903H332.518L327.049 424.926H291.018L318.35 349.844Z" fill="#3A95B3"/>
<path d="M69.0965 304.985H49.798L51.825 299.421C52.7751 296.824 53.1235 295.167 52.8913 294.46C52.659 293.752 51.9622 293.393 50.8115 293.393C49.5658 293.393 48.4467 293.868 47.4543 294.829C46.462 295.79 45.6174 297.236 44.8995 299.189C43.9916 301.691 43.6749 303.581 43.9177 304.848C44.1605 306.115 45.5435 307.645 48.1194 309.44C55.4883 314.603 59.7745 318.836 60.9781 322.14C62.171 325.445 61.432 330.776 58.7611 338.135C56.808 343.487 54.7177 347.425 52.4584 349.959C50.1992 352.492 46.8526 354.614 42.4186 356.335C37.974 358.045 33.2233 358.911 28.1559 358.911C22.5923 358.911 18.211 357.919 15.0017 355.944C11.7923 353.97 10.1348 351.447 10.0292 348.386C9.92368 345.324 10.8949 340.985 12.943 335.358L14.7377 330.438H34.0362L30.7107 339.57C29.6867 342.389 29.296 344.194 29.5494 344.997C29.8028 345.799 30.6157 346.2 31.9987 346.2C33.3817 346.2 34.5957 345.693 35.6409 344.669C36.6861 343.645 37.5728 342.136 38.3013 340.13C39.906 335.706 40.3283 332.814 39.5365 331.452C38.7447 330.09 36.2954 327.831 32.2943 324.632C28.2931 321.433 25.7277 319.079 24.577 317.633C23.4263 316.176 22.7717 314.17 22.6028 311.604C22.4339 309.039 23.0779 305.766 24.5242 301.776C26.6145 296.022 28.9265 291.82 31.4603 289.16C33.994 286.499 37.2772 284.42 41.3101 282.921C45.3429 281.421 49.8297 280.672 54.7599 280.672C60.1546 280.672 64.4514 281.495 67.6607 283.132C70.8595 284.768 72.6331 286.837 72.9604 289.318C73.2877 291.81 72.3692 296.033 70.1944 302.008L69.1176 304.974L69.0965 304.985Z" fill="#57A98F"/>
<path d="M153.067 282.253L117.415 357.335H94.0734C96.132 345.796 99.0247 332.674 102.741 317.957C99.7004 324.27 93.1866 337.393 83.1995 357.335H59.9844L78.945 282.253H97.1139L89.5549 308.445L82.2494 333.772C87.7074 320.67 95.6886 303.494 106.172 282.242H125.587C125.048 284.438 122.726 292.694 118.619 307.009L110.289 335.577C117.964 317.398 126.178 299.619 134.919 282.242H153.088L153.067 282.253Z" fill="#57A98F"/>
<path d="M154.894 282.242H189.543L184.074 297.276H170.202L165.018 311.507H178.004L172.799 325.79H159.824L153.817 342.302H169.062L163.593 357.335H127.572L154.894 282.242Z" fill="#57A98F"/>
<path d="M204.757 329C206.214 323.056 207.977 316.247 210.056 308.572C210.405 307.273 208.589 306.587 207.987 307.78C203.49 316.722 200.038 323.806 197.652 329.032C197.219 329.971 197.916 331.027 198.95 331.027H202.16C203.395 331.027 204.461 330.193 204.757 329ZM232.818 282.242L217.373 357.325H196.142L199.932 343.833H192.5L186.345 357.325H164.861L202.783 282.242H232.818Z" fill="#57A98F"/>
<path d="M239.086 282.242L233.618 297.276H245.917L224.053 357.335H244.829L266.693 297.276H283.764L261.9 357.335H282.677L310.009 282.242H239.086Z" fill="#57A98F"/>
<path d="M318.35 282.242H352.999L347.53 297.276H333.658L328.474 311.507H341.46L336.255 325.79H323.28L317.273 342.302H332.518L327.049 357.335H291.018L318.35 282.242Z" fill="#57A98F"/>
<path d="M69.0965 237.395H49.798L51.825 231.832C52.7751 229.235 53.1235 227.577 52.8913 226.87C52.659 226.162 51.9622 225.803 50.8115 225.803C49.5658 225.803 48.4467 226.278 47.4543 227.239C46.462 228.2 45.6174 229.646 44.8995 231.599C43.9916 234.101 43.6749 235.991 43.9177 237.258C44.1605 238.525 45.5435 240.056 48.1194 241.85C55.4883 247.013 59.7745 251.246 60.9781 254.551C62.171 257.855 61.432 263.186 58.7611 270.545C56.808 275.897 54.7177 279.835 52.4584 282.369C50.1992 284.902 46.8526 287.024 42.4186 288.745C37.974 290.455 33.2233 291.321 28.1559 291.321C22.5923 291.321 18.211 290.329 15.0017 288.355C11.7923 286.38 10.1348 283.857 10.0292 280.796C9.92368 277.734 10.8949 273.395 12.943 267.768L14.7377 262.849H34.0362L30.7107 271.98C29.6867 274.799 29.296 276.604 29.5494 277.407C29.8028 278.209 30.6157 278.61 31.9987 278.61C33.3817 278.61 34.5957 278.104 35.6409 277.08C36.6861 276.056 37.5728 274.546 38.3013 272.54C39.906 268.117 40.3283 265.224 39.5365 263.862C38.7447 262.5 36.2954 260.241 32.2943 257.042C28.2931 253.843 25.7277 251.489 24.577 250.043C23.4263 248.586 22.7717 246.58 22.6028 244.015C22.4339 241.449 23.0779 238.176 24.5242 234.186C26.6145 228.432 28.9265 224.23 31.4603 221.57C33.994 218.91 37.2772 216.83 41.3101 215.331C45.3429 213.832 49.8297 213.082 54.7599 213.082C60.1546 213.082 64.4514 213.905 67.6607 215.542C70.8595 217.178 72.6331 219.247 72.9604 221.728C73.2877 224.22 72.3692 228.443 70.1944 234.418L69.1176 237.385L69.0965 237.395Z" fill="#73BD6B"/>
<path d="M153.067 214.675L117.415 289.757H94.0734C96.132 278.218 99.0247 265.096 102.741 250.379C99.7004 256.692 93.1866 269.815 83.1995 289.757H59.9844L78.945 214.675H97.1139L89.5549 240.867L82.2494 266.194C87.7074 253.092 95.6886 235.916 106.172 214.664H125.587C125.048 216.86 122.726 225.116 118.619 239.431L110.289 267.999C117.964 249.819 126.178 232.041 134.919 214.664H153.088L153.067 214.675Z" fill="#73BD6B"/>
<path d="M154.894 214.676H189.543L184.074 229.699H170.202L165.018 243.94H178.004L172.799 258.224H159.824L153.817 274.735H169.062L163.593 289.758H127.572L154.894 214.676Z" fill="#73BD6B"/>
<path d="M204.757 261.433C206.214 255.49 207.977 248.68 210.056 241.005C210.405 239.707 208.589 239.021 207.987 240.214C203.49 249.155 200.038 256.239 197.652 261.465C197.219 262.405 197.916 263.46 198.95 263.46H202.16C203.395 263.46 204.461 262.626 204.757 261.433ZM232.818 214.676L217.373 289.758H196.142L199.932 276.266H192.5L186.345 289.758H164.861L202.783 214.676H232.818Z" fill="#73BD6B"/>
<path d="M239.086 214.676L233.618 229.699H245.917L224.053 289.758H244.829L266.693 229.699H283.764L261.9 289.758H282.677L310.009 214.676H239.086Z" fill="#73BD6B"/>
<path d="M318.35 214.676H352.999L347.53 229.699H333.658L328.474 243.94H341.46L336.255 258.224H323.28L317.273 274.735H332.518L327.049 289.758H291.018L318.35 214.676Z" fill="#73BD6B"/>
<path d="M69.0965 169.813H49.798L51.825 164.25C52.7751 161.652 53.1235 159.995 52.8913 159.288C52.659 158.58 51.9622 158.221 50.8115 158.221C49.5658 158.221 48.4467 158.696 47.4543 159.657C46.462 160.618 45.6174 162.064 44.8995 164.017C43.9916 166.519 43.6749 168.409 43.9177 169.676C44.1605 170.943 45.5435 172.474 48.1194 174.268C55.4883 179.431 59.7745 183.664 60.9781 186.969C62.171 190.273 61.432 195.604 58.7611 202.963C56.808 208.315 54.7177 212.253 52.4584 214.787C50.1992 217.32 46.8526 219.442 42.4186 221.163C37.974 222.873 33.2233 223.739 28.1559 223.739C22.5923 223.739 18.211 222.747 15.0017 220.773C11.7923 218.798 10.1348 216.275 10.0292 213.214C9.92368 210.152 10.8949 205.813 12.943 200.186L14.7377 195.266H34.0362L30.7107 204.398C29.6867 207.217 29.296 209.022 29.5494 209.825C29.8028 210.627 30.6157 211.028 31.9987 211.028C33.3817 211.028 34.5957 210.522 35.6409 209.498C36.6861 208.473 37.5728 206.964 38.3013 204.958C39.906 200.535 40.3283 197.642 39.5365 196.28C38.7447 194.918 36.2954 192.659 32.2943 189.46C28.2931 186.261 25.7277 183.907 24.577 182.461C23.4263 181.004 22.7717 178.998 22.6028 176.432C22.4339 173.867 23.0779 170.594 24.5242 166.604C26.6145 160.85 28.9265 156.648 31.4603 153.988C33.994 151.328 37.2772 149.248 41.3101 147.749C45.3429 146.25 49.8297 145.5 54.7599 145.5C60.1546 145.5 64.4514 146.323 67.6607 147.96C70.8595 149.596 72.6331 151.665 72.9604 154.146C73.2877 156.638 72.3692 160.861 70.1944 166.836L69.1176 169.803L69.0965 169.813Z" fill="#90D147"/>
<path d="M153.067 147.093L117.415 222.175H94.0734C96.132 210.636 99.0247 197.514 102.741 182.797C99.7004 189.11 93.1866 202.233 83.1995 222.175H59.9844L78.945 147.093H97.1139L89.5549 173.285L82.2494 198.612C87.7074 185.51 95.6886 168.334 106.172 147.082H125.587C125.048 149.278 122.726 157.534 118.619 171.849L110.289 200.417C117.964 182.237 126.178 164.459 134.919 147.082H153.088L153.067 147.093Z" fill="#90D147"/>
<path d="M154.894 147.082H189.543L184.074 162.105H170.202L165.018 176.346H178.004L172.799 190.63H159.824L153.817 207.142H169.062L163.593 222.165H127.572L154.894 147.082Z" fill="#90D147"/>
<path d="M204.757 193.84C206.214 187.896 207.977 181.087 210.056 173.412C210.405 172.113 208.589 171.427 207.987 172.62C203.49 181.562 200.038 188.646 197.652 193.871C197.219 194.811 197.916 195.867 198.95 195.867H202.16C203.395 195.867 204.461 195.033 204.757 193.84ZM232.818 147.082L217.373 222.165H196.142L199.932 208.673H192.5L186.345 222.165H164.861L202.783 147.082H232.818Z" fill="#90D147"/>
<path d="M239.086 147.082L233.618 162.105H245.917L224.053 222.165H244.829L266.693 162.105H283.764L261.9 222.165H282.677L310.009 147.082H239.086Z" fill="#90D147"/>
<path d="M318.35 147.082H352.999L347.53 162.105H333.658L328.474 176.346H341.46L336.255 190.63H323.28L317.273 207.142H332.518L327.049 222.165H291.018L318.35 147.082Z" fill="#90D147"/>
<path d="M69.0965 102.235H49.798L51.825 96.6714C52.7751 94.0743 53.1235 92.4169 52.8913 91.7095C52.659 91.0022 51.9622 90.6433 50.8115 90.6433C49.5658 90.6433 48.4467 91.1183 47.4543 92.079C46.462 93.0397 45.6174 94.4861 44.8995 96.4391C43.9916 98.9412 43.6749 100.831 43.9177 102.098C44.1605 103.365 45.5435 104.895 48.1194 106.69C55.4883 111.853 59.7745 116.086 60.9781 119.39C62.171 122.695 61.432 128.026 58.7611 135.385C56.808 140.737 54.7177 144.675 52.4584 147.209C50.1992 149.742 46.8526 151.864 42.4186 153.585C37.974 155.295 33.2233 156.161 28.1559 156.161C22.5923 156.161 18.211 155.169 15.0017 153.194C11.7923 151.22 10.1348 148.697 10.0292 145.636C9.92368 142.574 10.8949 138.235 12.943 132.608L14.7377 127.688H34.0362L30.7107 136.82C29.6867 139.639 29.296 141.444 29.5494 142.247C29.8028 143.049 30.6157 143.45 31.9987 143.45C33.3817 143.45 34.5957 142.943 35.6409 141.919C36.6861 140.895 37.5728 139.386 38.3013 137.38C39.906 132.956 40.3283 130.064 39.5365 128.702C38.7447 127.34 36.2954 125.081 32.2943 121.882C28.2931 118.683 25.7277 116.329 24.577 114.882C23.4263 113.426 22.7717 111.42 22.6028 108.854C22.4339 106.289 23.0779 103.016 24.5242 99.0256C26.6145 93.272 28.9265 89.0702 31.4603 86.4098C33.994 83.7494 37.2772 81.6697 41.3101 80.1705C45.3429 78.6714 49.8297 77.9219 54.7599 77.9219C60.1546 77.9219 64.4514 78.7453 67.6607 80.3817C70.8595 82.018 72.6331 84.0873 72.9604 86.5682C73.2877 89.0597 72.3692 93.2825 70.1944 99.2579L69.1176 102.224L69.0965 102.235Z" fill="#ADE624"/>
<path d="M153.067 79.5027L117.415 154.585H94.0734C96.132 143.046 99.0247 129.924 102.741 115.207C99.7004 121.52 93.1866 134.643 83.1995 154.585H59.9844L78.945 79.5027H97.1139L89.5549 105.695L82.2494 131.022C87.7074 117.92 95.6886 100.744 106.172 79.4922H125.587C125.048 81.6881 122.726 89.9438 118.619 104.259L110.289 132.827C117.964 114.648 126.178 96.8693 134.919 79.4922H153.088L153.067 79.5027Z" fill="#ADE624"/>
<path d="M154.894 79.5039H189.543L184.074 94.5267H170.202L165.018 108.768H178.004L172.799 123.052H159.824L153.817 139.564H169.062L163.593 154.586H127.572L154.894 79.5039Z" fill="#ADE624"/>
<path d="M204.757 126.262C206.214 120.318 207.977 113.509 210.056 105.833C210.405 104.535 208.589 103.849 207.987 105.042C203.49 113.984 200.038 121.067 197.652 126.293C197.219 127.233 197.916 128.289 198.95 128.289H202.16C203.395 128.289 204.461 127.455 204.757 126.262ZM232.818 79.5039L217.373 154.586H196.142L199.932 141.094H192.5L186.345 154.586H164.861L202.783 79.5039H232.818Z" fill="#ADE624"/>
<path d="M239.086 79.5039L233.618 94.5267H245.917L224.053 154.586H244.829L266.693 94.5267H283.764L261.9 154.586H282.677L310.009 79.5039H239.086Z" fill="#ADE624"/>
<path d="M318.35 79.5039H352.999L347.53 94.5267H333.658L328.474 108.768H341.46L336.255 123.052H323.28L317.273 139.564H332.518L327.049 154.586H291.018L318.35 79.5039Z" fill="#ADE624"/>
<path d="M69.0961 34.6463H49.7976L51.8246 29.0827C52.7748 26.4857 53.1232 24.8282 52.8909 24.1208C52.6586 23.4135 51.9619 23.0546 50.8111 23.0546C49.5654 23.0546 48.4463 23.5296 47.454 24.4903C46.4616 25.4511 45.617 26.8974 44.8991 28.8505C43.9912 31.3525 43.6639 33.2422 43.9173 34.5091C44.139 35.776 45.5431 37.3067 48.1191 39.1015C55.488 44.2639 59.7742 48.4973 60.9777 51.8017C62.1706 55.1061 61.4316 60.4375 58.7607 67.7958C56.8076 73.1483 54.7173 77.0861 52.4581 79.6199C50.1988 82.1536 46.8522 84.2756 42.4182 85.9964C37.9736 87.7066 33.2229 88.5723 28.1555 88.5723C22.5919 88.5723 18.2107 87.58 15.0013 85.6058C11.7708 83.6316 10.1133 81.119 10.0078 78.0574C9.90219 74.9958 10.8734 70.6568 12.9215 65.0299L14.7163 60.1102H34.0147L30.6892 69.2422C29.6652 72.0609 29.2746 73.8662 29.5279 74.6685C29.7813 75.4709 30.5942 75.8721 31.9772 75.8721C33.3602 75.8721 34.5742 75.3653 35.6194 74.3413C36.6646 73.3172 37.5514 71.8076 38.2798 69.8017C39.8845 65.3782 40.2962 62.4856 39.515 61.1237C38.6915 59.7618 36.2845 57.492 32.2728 54.3038C28.2822 51.0944 25.7062 48.7507 24.5555 47.3044C23.4048 45.8475 22.7502 43.8416 22.5813 41.2762C22.4124 38.7108 23.0564 35.4381 24.5027 31.4475C26.593 25.6939 28.9051 21.4921 31.4388 18.8317C33.9725 16.1713 37.2558 14.0915 41.2886 12.5924C45.3214 11.0933 49.8082 10.3438 54.7384 10.3438C60.1331 10.3438 64.4299 11.1672 67.6392 12.8036C70.838 14.4399 72.6116 16.5091 72.9389 18.9901C73.2662 21.4816 72.3477 25.7044 70.1729 31.6798L69.0961 34.6463Z" fill="#CAFA00"/>
<path d="M153.067 11.9129L117.415 86.9955H94.0734C96.132 75.4565 99.0247 62.3339 102.741 47.6172C99.7004 53.9304 93.1866 67.053 83.1995 86.9955H59.9844L78.9345 11.9129H97.1033L89.5444 38.1052L82.2388 63.4319C87.6969 50.3304 95.6781 33.1539 106.161 11.9023H125.576C125.038 14.0982 122.715 22.3539 118.608 36.6695L110.279 65.2371C117.954 47.0577 126.167 29.2794 134.908 11.9023H153.077L153.067 11.9129Z" fill="#CAFA00"/>
<path d="M154.894 11.9141H189.542L184.074 26.9369H170.202L165.018 41.1785H178.003L172.799 55.4624H159.813L153.806 71.9738H169.051L163.582 86.9966H127.551L154.894 11.9141Z" fill="#CAFA00"/>
<path d="M204.757 58.6717C206.214 52.7281 207.977 45.9187 210.056 38.2436C210.405 36.9451 208.589 36.2589 207.987 37.4518C203.49 46.3938 200.038 53.4776 197.652 58.7034C197.219 59.643 197.916 60.6987 198.95 60.6987H202.16C203.395 60.6987 204.461 59.8647 204.757 58.6717ZM232.818 11.9141L217.373 86.9966H196.142L199.932 73.5046H192.5L186.345 86.9966H164.861L202.783 11.9141H232.818Z" fill="#CAFA00"/>
<path d="M239.086 11.9141L233.618 26.9475H245.917L224.053 87.0072H244.829L266.693 26.9475H283.764L261.9 87.0072H282.677L310.009 11.9141H239.086Z" fill="#CAFA00"/>
<path d="M318.351 11.9141H352.999L347.531 26.9369H333.659L328.475 41.1785H341.46L336.256 55.4624H323.27L317.263 71.9738H332.508L327.039 86.9966H291.008L318.351 11.9141Z" fill="#CAFA00"/>
</svg>
